<?xml version="1.0" encoding="UTF-8"?>
<!DOCTYPE svg PUBLIC "-//W3C//DTD SVG 1.1//EN" "http://www.w3.org/Graphics/SVG/1.1/DTD/svg11.dtd">
<!-- Creator: CorelDRAW 2020 (64-Bit) -->
<svg xmlns="http://www.w3.org/2000/svg" xml:space="preserve" width="16.5354in" height="11.6929in" version="1.1" style="shape-rendering:geometricPrecision; text-rendering:geometricPrecision; image-rendering:optimizeQuality; fill-rule:evenodd; clip-rule:evenodd"
viewBox="0 0 16535.43 11692.91"
 xmlns:xlink="http://www.w3.org/1999/xlink"
 xmlns:xodm="http://www.corel.com/coreldraw/odm/2003">
 <defs>
  <style type="text/css">
   <![CDATA[
    .fil0 {fill:#133F6E;fill-rule:nonzero}
   ]]>
  </style>
 </defs>
 <g id="Layer_x0020_1">
  <metadata id="CorelCorpID_0Corel-Layer"/>
  <path class="fil0" d="M8551.44 5141.25c16.46,0 29.79,-13.34 29.79,-29.8 0,-16.45 -13.33,-29.79 -29.79,-29.79 -16.45,0 -29.79,13.34 -29.79,29.79 0,16.46 13.34,29.8 29.79,29.8z"/>
  <path class="fil0" d="M8417.17 5209.9c16.69,0 30.21,-13.53 30.21,-30.21 0,-16.69 -13.52,-30.21 -30.21,-30.21 -16.69,0 -30.21,13.52 -30.21,30.21 0,16.68 13.52,30.21 30.21,30.21z"/>
  <path class="fil0" d="M8685.71 5209.69c16.63,0 30.11,-13.48 30.11,-30.11 0,-16.63 -13.48,-30.1 -30.11,-30.1 -16.62,0 -30.1,13.48 -30.1,30.1 0,16.63 13.48,30.11 30.1,30.11z"/>
  <path class="fil0" d="M8282.9 5275.94c16.46,0 29.79,-13.34 29.79,-29.79 0,-16.45 -13.33,-29.79 -29.79,-29.79 -16.46,0 -29.79,13.34 -29.79,29.79 0,16.45 13.33,29.79 29.79,29.79z"/>
  <path class="fil0" d="M8551.75 5287.5c19.68,0 35.63,-15.95 35.63,-35.63 0,-19.67 -15.95,-35.62 -35.63,-35.62 -19.68,0 -35.63,15.95 -35.63,35.62 0,19.68 15.95,35.63 35.63,35.63z"/>
  <path class="fil0" d="M8820.09 5275.94c16.51,0 29.89,-13.38 29.89,-29.89 0,-16.51 -13.39,-29.9 -29.89,-29.9 -16.51,0 -29.9,13.39 -29.9,29.9 0,16.51 13.39,29.89 29.9,29.89z"/>
  <path class="fil0" d="M8417.27 5355.73c19.73,0 35.73,-16 35.73,-35.73 0,-19.73 -16,-35.73 -35.73,-35.73 -19.73,0 -35.73,16 -35.73,35.73 0,19.73 16,35.73 35.73,35.73z"/>
  <path class="fil0" d="M8685.61 5355.73c19.73,0 35.73,-16 35.73,-35.73 0,-19.73 -16,-35.73 -35.73,-35.73 -19.73,0 -35.73,16 -35.73,35.73 0,19.73 16,35.73 35.73,35.73z"/>
  <path class="fil0" d="M8148.73 5346.25c16.46,0 29.79,-13.34 29.79,-29.8 0,-16.45 -13.33,-29.79 -29.79,-29.79 -16.46,0 -29.79,13.34 -29.79,29.79 0,16.46 13.33,29.8 29.79,29.8z"/>
  <path class="fil0" d="M8954.25 5346.15c16.46,0 29.79,-13.34 29.79,-29.79 0,-16.45 -13.33,-29.79 -29.79,-29.79 -16.45,0 -29.79,13.34 -29.79,29.79 0,16.45 13.34,29.79 29.79,29.79z"/>
  <path class="fil0" d="M8282.59 5422.5c19.73,0 35.73,-16 35.73,-35.73 0,-19.73 -16,-35.73 -35.73,-35.73 -19.73,0 -35.73,16 -35.73,35.73 0,19.73 16,35.73 35.73,35.73z"/>
  <path class="fil0" d="M8820.19 5422.29c19.68,0 35.63,-15.95 35.63,-35.63 0,-19.67 -15.95,-35.62 -35.63,-35.62 -19.68,0 -35.63,15.95 -35.63,35.62 0,19.68 15.95,35.63 35.63,35.63z"/>
  <path class="fil0" d="M8014.36 5415.63c16.62,0 30.1,-13.48 30.1,-30.11 0,-16.63 -13.48,-30.1 -30.1,-30.1 -16.63,0 -30.11,13.48 -30.11,30.1 0,16.63 13.48,30.11 30.11,30.11z"/>
  <path class="fil0" d="M9088.73 5415.73c16.63,0 30.1,-13.48 30.1,-30.1 0,-16.63 -13.48,-30.11 -30.1,-30.11 -16.63,0 -30.11,13.48 -30.11,30.11 0,16.63 13.48,30.1 30.11,30.1z"/>
  <path class="fil0" d="M8551.65 5428.13c19.68,0 35.62,-15.95 35.62,-35.63 0,-19.67 -15.94,-35.63 -35.62,-35.63 -19.68,0 -35.63,15.95 -35.63,35.63 0,19.68 15.95,35.63 35.63,35.63z"/>
  <path class="fil0" d="M8148.63 5492.29c19.68,0 35.63,-15.95 35.63,-35.63 0,-19.67 -15.95,-35.62 -35.63,-35.62 -19.68,0 -35.62,15.95 -35.62,35.62 0,19.68 15.94,35.63 35.62,35.63z"/>
  <path class="fil0" d="M8954.36 5492.61c19.68,0 35.62,-15.95 35.62,-35.63 0,-19.68 -15.94,-35.63 -35.62,-35.63 -19.68,0 -35.63,15.95 -35.63,35.63 0,19.67 15.95,35.63 35.63,35.63z"/>
  <path class="fil0" d="M7880.3 5485.83c16.62,0 30.1,-13.48 30.1,-30.11 0,-16.63 -13.48,-30.1 -30.1,-30.1 -16.63,0 -30.11,13.48 -30.11,30.1 0,16.63 13.48,30.11 30.11,30.11z"/>
  <path class="fil0" d="M8417.27 5496.35c19.73,0 35.73,-16 35.73,-35.73 0,-19.73 -16,-35.73 -35.73,-35.73 -19.73,0 -35.73,16 -35.73,35.73 0,19.73 16,35.73 35.73,35.73z"/>
  <path class="fil0" d="M8685.71 5496.15c19.68,0 35.63,-15.95 35.63,-35.63 0,-19.67 -15.95,-35.62 -35.63,-35.62 -19.67,0 -35.62,15.95 -35.62,35.62 0,19.68 15.95,35.63 35.62,35.63z"/>
  <path class="fil0" d="M9223.11 5485.83c16.57,0 30,-13.43 30,-30 0,-16.57 -13.43,-30 -30,-30 -16.57,0 -30,13.43 -30,30 0,16.57 13.43,30 30,30z"/>
  <path class="fil0" d="M7749.67 5550.21c16.57,0 30,-13.43 30,-30 0,-16.57 -13.43,-30 -30,-30 -16.57,0 -30,13.43 -30,30 0,16.57 13.43,30 30,30z"/>
  <path class="fil0" d="M8014.04 5561.56c19.68,0 35.63,-15.95 35.63,-35.63 0,-19.67 -15.95,-35.63 -35.63,-35.63 -19.68,0 -35.63,15.95 -35.63,35.63 0,19.68 15.95,35.63 35.63,35.63z"/>
  <path class="fil0" d="M8282.69 5562.61c19.68,0 35.63,-15.95 35.63,-35.63 0,-19.68 -15.95,-35.63 -35.63,-35.63 -19.68,0 -35.63,15.95 -35.63,35.63 0,19.67 15.95,35.63 35.63,35.63z"/>
  <path class="fil0" d="M8820.3 5562.81c19.68,0 35.62,-15.95 35.62,-35.62 0,-19.68 -15.94,-35.63 -35.62,-35.63 -19.68,0 -35.63,15.95 -35.63,35.63 0,19.67 15.95,35.62 35.63,35.62z"/>
  <path class="fil0" d="M9088.83 5561.56c19.68,0 35.63,-15.95 35.63,-35.63 0,-19.67 -15.95,-35.63 -35.63,-35.63 -19.68,0 -35.62,15.95 -35.62,35.63 0,19.68 15.94,35.63 35.62,35.63z"/>
  <path class="fil0" d="M9357.17 5550.31c16.69,0 30.21,-13.52 30.21,-30.2 0,-16.69 -13.52,-30.21 -30.21,-30.21 -16.69,0 -30.21,13.52 -30.21,30.21 0,16.68 13.52,30.2 30.21,30.2z"/>
  <path class="fil0" d="M8551.65 5568.54c19.61,0 35.52,-15.91 35.52,-35.52 0,-19.62 -15.91,-35.52 -35.52,-35.52 -19.61,0 -35.52,15.9 -35.52,35.52 0,19.62 15.91,35.52 35.52,35.52z"/>
  <path class="fil0" d="M7880.3 5632.08c19.68,0 35.62,-15.95 35.62,-35.63 0,-19.67 -15.94,-35.62 -35.62,-35.62 -19.68,0 -35.63,15.95 -35.63,35.62 0,19.68 15.95,35.63 35.63,35.63z"/>
  <path class="fil0" d="M8148.63 5632.61c19.61,0 35.52,-15.91 35.52,-35.52 0,-19.62 -15.91,-35.52 -35.52,-35.52 -19.61,0 -35.52,15.9 -35.52,35.52 0,19.62 15.91,35.52 35.52,35.52z"/>
  <path class="fil0" d="M8954.25 5632.81c19.68,0 35.63,-15.95 35.63,-35.62 0,-19.68 -15.95,-35.63 -35.63,-35.63 -19.68,0 -35.63,15.95 -35.63,35.63 0,19.67 15.95,35.62 35.63,35.62z"/>
  <path class="fil0" d="M9222.59 5631.87c19.61,0 35.52,-15.9 35.52,-35.52 0,-19.62 -15.91,-35.52 -35.52,-35.52 -19.61,0 -35.52,15.9 -35.52,35.52 0,19.62 15.91,35.52 35.52,35.52z"/>
  <path class="fil0" d="M7611.65 5626.46c16.62,0 30.1,-13.48 30.1,-30.1 0,-16.63 -13.48,-30.1 -30.1,-30.1 -16.63,0 -30.11,13.48 -30.11,30.1 0,16.63 13.48,30.1 30.11,30.1z"/>
  <path class="fil0" d="M8417.27 5636.77c19.73,0 35.73,-16 35.73,-35.73 0,-19.73 -16,-35.73 -35.73,-35.73 -19.73,0 -35.73,16 -35.73,35.73 0,19.73 16,35.73 35.73,35.73z"/>
  <path class="fil0" d="M8685.81 5636.67c19.68,0 35.63,-15.95 35.63,-35.62 0,-19.68 -15.95,-35.63 -35.63,-35.63 -19.68,0 -35.63,15.95 -35.63,35.63 0,19.67 15.95,35.62 35.63,35.62z"/>
  <path class="fil0" d="M9491.44 5626.04c16.46,0 29.79,-13.34 29.79,-29.79 0,-16.46 -13.33,-29.8 -29.79,-29.8 -16.46,0 -29.79,13.34 -29.79,29.8 0,16.45 13.33,29.79 29.79,29.79z"/>
  <path class="fil0" d="M7503.94 5710.42c26,0 47.08,-21.08 47.08,-47.08 0,-26 -21.08,-47.08 -47.08,-47.08 -26,0 -47.08,21.08 -47.08,47.08 0,26 21.08,47.08 47.08,47.08z"/>
  <path class="fil0" d="M9598.11 5710.21c26,0 47.08,-21.08 47.08,-47.08 0,-26 -21.08,-47.08 -47.08,-47.08 -26,0 -47.08,21.08 -47.08,47.08 0,26 21.08,47.08 47.08,47.08z"/>
  <path class="fil0" d="M7749.77 5696.25c19.73,0 35.73,-16 35.73,-35.73 0,-19.73 -16,-35.73 -35.73,-35.73 -19.73,0 -35.73,16 -35.73,35.73 0,19.73 16,35.73 35.73,35.73z"/>
  <path class="fil0" d="M9357.17 5696.46c19.73,0 35.73,-16 35.73,-35.73 0,-19.73 -16,-35.73 -35.73,-35.73 -19.73,0 -35.73,16 -35.73,35.73 0,19.73 16,35.73 35.73,35.73z"/>
  <path class="fil0" d="M8014.15 5702.08c19.68,0 35.62,-15.95 35.62,-35.63 0,-19.67 -15.94,-35.62 -35.62,-35.62 -19.68,0 -35.63,15.95 -35.63,35.62 0,19.68 15.95,35.63 35.63,35.63z"/>
  <path class="fil0" d="M8282.69 5702.81c19.68,0 35.63,-15.94 35.63,-35.62 0,-19.68 -15.95,-35.63 -35.63,-35.63 -19.68,0 -35.63,15.95 -35.63,35.63 0,19.68 15.95,35.62 35.63,35.62z"/>
  <path class="fil0" d="M8820.09 5703.02c19.68,0 35.63,-15.94 35.63,-35.62 0,-19.68 -15.95,-35.63 -35.63,-35.63 -19.68,0 -35.63,15.95 -35.63,35.63 0,19.68 15.95,35.62 35.63,35.62z"/>
  <path class="fil0" d="M9088.83 5702.08c19.73,0 35.73,-16 35.73,-35.73 0,-19.73 -16,-35.73 -35.73,-35.73 -19.73,0 -35.73,16 -35.73,35.73 0,19.73 16,35.73 35.73,35.73z"/>
  <path class="fil0" d="M8551.75 5709.17c19.68,0 35.63,-15.94 35.63,-35.62 0,-19.68 -15.95,-35.63 -35.63,-35.63 -19.68,0 -35.63,15.95 -35.63,35.63 0,19.68 15.95,35.62 35.63,35.62z"/>
  <path class="fil0" d="M7611.75 5806.35c38.49,0 69.69,-31.2 69.69,-69.69 0,-38.49 -31.2,-69.69 -69.69,-69.69 -38.49,0 -69.69,31.2 -69.69,69.69 0,38.49 31.2,69.69 69.69,69.69z"/>
  <path class="fil0" d="M9491.54 5806.35c38.49,0 69.69,-31.2 69.69,-69.69 0,-38.49 -31.2,-69.69 -69.69,-69.69 -38.49,0 -69.69,31.2 -69.69,69.69 0,38.49 31.2,69.69 69.69,69.69z"/>
  <path class="fil0" d="M7880.3 5772.4c19.73,0 35.73,-16 35.73,-35.73 0,-19.73 -16,-35.73 -35.73,-35.73 -19.73,0 -35.73,16 -35.73,35.73 0,19.73 16,35.73 35.73,35.73z"/>
  <path class="fil0" d="M8148.52 5773.23c19.68,0 35.63,-15.94 35.63,-35.62 0,-19.68 -15.95,-35.63 -35.63,-35.63 -19.68,0 -35.63,15.95 -35.63,35.63 0,19.68 15.95,35.62 35.63,35.62z"/>
  <path class="fil0" d="M8954.25 5773.33c19.68,0 35.63,-15.95 35.63,-35.63 0,-19.68 -15.95,-35.63 -35.63,-35.63 -19.68,0 -35.63,15.95 -35.63,35.63 0,19.68 15.95,35.63 35.63,35.63z"/>
  <path class="fil0" d="M9222.69 5772.29c19.68,0 35.63,-15.95 35.63,-35.63 0,-19.68 -15.95,-35.62 -35.63,-35.62 -19.68,0 -35.63,15.94 -35.63,35.62 0,19.68 15.95,35.63 35.63,35.63z"/>
  <path class="fil0" d="M8417.17 5777.29c19.73,0 35.73,-16 35.73,-35.73 0,-19.73 -16,-35.73 -35.73,-35.73 -19.73,0 -35.73,16 -35.73,35.73 0,19.73 16,35.73 35.73,35.73z"/>
  <path class="fil0" d="M8685.71 5777.19c19.73,0 35.73,-16 35.73,-35.73 0,-19.73 -16,-35.73 -35.73,-35.73 -19.73,0 -35.73,16 -35.73,35.73 0,19.73 16,35.73 35.73,35.73z"/>
  <path class="fil0" d="M7749.77 5870.63c38.43,0 69.59,-31.16 69.59,-69.58 0,-38.43 -31.16,-69.59 -69.59,-69.59 -38.43,0 -69.58,31.16 -69.58,69.59 0,38.43 31.16,69.58 69.58,69.58z"/>
  <path class="fil0" d="M9357.17 5870.63c38.49,0 69.69,-31.2 69.69,-69.69 0,-38.49 -31.2,-69.69 -69.69,-69.69 -38.49,0 -69.69,31.2 -69.69,69.69 0,38.49 31.2,69.69 69.69,69.69z"/>
  <path class="fil0" d="M8014.15 5842.61c19.68,0 35.62,-15.95 35.62,-35.63 0,-19.68 -15.94,-35.63 -35.62,-35.63 -19.68,0 -35.63,15.95 -35.63,35.63 0,19.68 15.95,35.63 35.63,35.63z"/>
  <path class="fil0" d="M8282.8 5843.44c19.68,0 35.62,-15.95 35.62,-35.63 0,-19.68 -15.94,-35.62 -35.62,-35.62 -19.68,0 -35.63,15.94 -35.63,35.62 0,19.68 15.95,35.63 35.63,35.63z"/>
  <path class="fil0" d="M8820.3 5843.33c19.61,0 35.52,-15.91 35.52,-35.52 0,-19.61 -15.91,-35.52 -35.52,-35.52 -19.61,0 -35.52,15.91 -35.52,35.52 0,19.62 15.91,35.52 35.52,35.52z"/>
  <path class="fil0" d="M9088.73 5842.5c19.68,0 35.63,-15.95 35.63,-35.63 0,-19.68 -15.95,-35.62 -35.63,-35.62 -19.68,0 -35.63,15.94 -35.63,35.62 0,19.68 15.95,35.63 35.63,35.63z"/>
  <path class="fil0" d="M8551.86 5849.48c19.73,0 35.73,-16 35.73,-35.73 0,-19.73 -16,-35.73 -35.73,-35.73 -19.73,0 -35.73,16 -35.73,35.73 0,19.73 16,35.73 35.73,35.73z"/>
  <path class="fil0" d="M7486.96 5851.46c16.63,0 30.1,-13.48 30.1,-30.1 0,-16.63 -13.48,-30.1 -30.1,-30.1 -16.63,0 -30.1,13.48 -30.1,30.1 0,16.63 13.48,30.1 30.1,30.1z"/>
  <path class="fil0" d="M9616.86 5851.46c16.57,0 30,-13.43 30,-30 0,-16.57 -13.43,-30 -30,-30 -16.57,0 -30,13.43 -30,30 0,16.57 13.43,30 30,30z"/>
  <path class="fil0" d="M7880.3 5946.77c38.49,0 69.69,-31.2 69.69,-69.69 0,-38.49 -31.2,-69.69 -69.69,-69.69 -38.49,0 -69.69,31.2 -69.69,69.69 0,38.49 31.2,69.69 69.69,69.69z"/>
  <path class="fil0" d="M9222.8 5946.87c38.49,0 69.69,-31.2 69.69,-69.69 0,-38.49 -31.2,-69.69 -69.69,-69.69 -38.49,0 -69.69,31.2 -69.69,69.69 0,38.49 31.2,69.69 69.69,69.69z"/>
  <path class="fil0" d="M7611.54 5946.98c32.27,0 58.44,-26.17 58.44,-58.44 0,-32.27 -26.17,-58.44 -58.44,-58.44 -32.27,0 -58.44,26.17 -58.44,58.44 0,32.27 26.17,58.44 58.44,58.44z"/>
  <path class="fil0" d="M9491.44 5946.87c32.15,0 58.23,-26.07 58.23,-58.23 0,-32.16 -26.07,-58.23 -58.23,-58.23 -32.16,0 -58.23,26.07 -58.23,58.23 0,32.16 26.07,58.23 58.23,58.23z"/>
  <path class="fil0" d="M8148.83 5913.65c19.73,0 35.73,-16 35.73,-35.73 0,-19.73 -16,-35.73 -35.73,-35.73 -19.73,0 -35.73,16 -35.73,35.73 0,19.73 16,35.73 35.73,35.73z"/>
  <path class="fil0" d="M8954.25 5913.75c19.68,0 35.63,-15.95 35.63,-35.63 0,-19.68 -15.95,-35.63 -35.63,-35.63 -19.68,0 -35.63,15.95 -35.63,35.63 0,19.68 15.95,35.63 35.63,35.63z"/>
  <path class="fil0" d="M8417.27 5917.4c19.61,0 35.52,-15.91 35.52,-35.52 0,-19.61 -15.91,-35.52 -35.52,-35.52 -19.61,0 -35.52,15.91 -35.52,35.52 0,19.61 15.91,35.52 35.52,35.52z"/>
  <path class="fil0" d="M8685.81 5917.61c19.68,0 35.63,-15.95 35.63,-35.63 0,-19.68 -15.95,-35.63 -35.63,-35.63 -19.68,0 -35.63,15.95 -35.63,35.63 0,19.68 15.95,35.63 35.63,35.63z"/>
  <path class="fil0" d="M8014.36 6017.08c38.49,0 69.69,-31.2 69.69,-69.69 0,-38.49 -31.2,-69.69 -69.69,-69.69 -38.49,0 -69.69,31.2 -69.69,69.69 0,38.49 31.2,69.69 69.69,69.69z"/>
  <path class="fil0" d="M9088.73 6016.98c38.49,0 69.69,-31.2 69.69,-69.69 0,-38.49 -31.2,-69.69 -69.69,-69.69 -38.49,0 -69.69,31.2 -69.69,69.69 0,38.49 31.2,69.69 69.69,69.69z"/>
  <path class="fil0" d="M7749.77 6016.77c35.39,0 64.06,-28.68 64.06,-64.06 0,-35.39 -28.68,-64.06 -64.06,-64.06 -35.39,0 -64.06,28.68 -64.06,64.06 0,35.39 28.68,64.06 64.06,64.06z"/>
  <path class="fil0" d="M9357.27 6016.67c35.32,0 63.96,-28.63 63.96,-63.96 0,-35.32 -28.64,-63.96 -63.96,-63.96 -35.32,0 -63.96,28.63 -63.96,63.96 0,35.32 28.63,63.96 63.96,63.96z"/>
  <path class="fil0" d="M8282.8 5983.96c19.68,0 35.62,-15.94 35.62,-35.62 0,-19.68 -15.94,-35.63 -35.62,-35.63 -19.68,0 -35.63,15.95 -35.63,35.63 0,19.68 15.95,35.62 35.63,35.62z"/>
  <path class="fil0" d="M8820.19 5984.06c19.68,0 35.63,-15.95 35.63,-35.63 0,-19.68 -15.95,-35.63 -35.63,-35.63 -19.68,0 -35.63,15.95 -35.63,35.63 0,19.68 15.95,35.63 35.63,35.63z"/>
  <path class="fil0" d="M8551.86 5989.48c19.68,0 35.62,-15.95 35.62,-35.63 0,-19.68 -15.94,-35.63 -35.62,-35.63 -19.68,0 -35.63,15.95 -35.63,35.63 0,19.68 15.95,35.63 35.63,35.63z"/>
  <path class="fil0" d="M7487.06 6003.44c16.63,0 30.11,-13.48 30.11,-30.1 0,-16.63 -13.48,-30.11 -30.11,-30.11 -16.62,0 -30.1,13.48 -30.1,30.11 0,16.62 13.48,30.1 30.1,30.1z"/>
  <path class="fil0" d="M9616.65 6003.44c16.62,0 30.1,-13.48 30.1,-30.1 0,-16.63 -13.48,-30.11 -30.1,-30.11 -16.63,0 -30.11,13.48 -30.11,30.11 0,16.62 13.48,30.1 30.11,30.1z"/>
  <path class="fil0" d="M8148.63 6088.02c38.43,0 69.58,-31.15 69.58,-69.58 0,-38.43 -31.15,-69.58 -69.58,-69.58 -38.43,0 -69.58,31.16 -69.58,69.58 0,38.43 31.16,69.58 69.58,69.58z"/>
  <path class="fil0" d="M8954.25 6088.13c38.49,0 69.69,-31.2 69.69,-69.69 0,-38.49 -31.2,-69.69 -69.69,-69.69 -38.49,0 -69.69,31.2 -69.69,69.69 0,38.49 31.2,69.69 69.69,69.69z"/>
  <path class="fil0" d="M7880.3 6092.92c35.37,0 64.06,-28.68 64.06,-64.06 0,-35.39 -28.69,-64.06 -64.06,-64.06 -35.39,0 -64.06,28.68 -64.06,64.06 0,35.39 28.68,64.06 64.06,64.06z"/>
  <path class="fil0" d="M9222.8 6092.81c35.39,0 64.06,-28.68 64.06,-64.06 0,-35.39 -28.68,-64.06 -64.06,-64.06 -35.38,0 -64.06,28.68 -64.06,64.06 0,35.38 28.69,64.06 64.06,64.06z"/>
  <path class="fil0" d="M8417.27 6057.81c19.61,0 35.52,-15.91 35.52,-35.52 0,-19.61 -15.91,-35.52 -35.52,-35.52 -19.61,0 -35.52,15.91 -35.52,35.52 0,19.61 15.91,35.52 35.52,35.52z"/>
  <path class="fil0" d="M8685.81 6058.02c19.68,0 35.63,-15.94 35.63,-35.62 0,-19.68 -15.95,-35.63 -35.63,-35.63 -19.68,0 -35.63,15.95 -35.63,35.63 0,19.68 15.95,35.62 35.63,35.62z"/>
  <path class="fil0" d="M7611.86 6075.94c19.73,0 35.73,-16 35.73,-35.73 0,-19.73 -16,-35.73 -35.73,-35.73 -19.73,0 -35.73,16 -35.73,35.73 0,19.73 16,35.73 35.73,35.73z"/>
  <path class="fil0" d="M9491.54 6076.46c19.91,0 36.04,-16.13 36.04,-36.04 0,-19.91 -16.14,-36.04 -36.04,-36.04 -19.91,0 -36.04,16.14 -36.04,36.04 0,19.91 16.13,36.04 36.04,36.04z"/>
  <path class="fil0" d="M8282.9 6158.54c38.49,0 69.69,-31.2 69.69,-69.69 0,-38.49 -31.2,-69.69 -69.69,-69.69 -38.49,0 -69.69,31.2 -69.69,69.69 0,38.49 31.2,69.69 69.69,69.69z"/>
  <path class="fil0" d="M8820.19 6158.33c38.49,0 69.69,-31.2 69.69,-69.69 0,-38.49 -31.2,-69.69 -69.69,-69.69 -38.49,0 -69.69,31.2 -69.69,69.69 0,38.49 31.2,69.69 69.69,69.69z"/>
  <path class="fil0" d="M8014.25 6163.13c35.39,0 64.06,-28.68 64.06,-64.06 0,-35.39 -28.68,-64.06 -64.06,-64.06 -35.39,0 -64.06,28.68 -64.06,64.06 0,35.39 28.68,64.06 64.06,64.06z"/>
  <path class="fil0" d="M9088.73 6163.02c35.32,0 63.96,-28.63 63.96,-63.96 0,-35.32 -28.63,-63.96 -63.96,-63.96 -35.32,0 -63.96,28.63 -63.96,63.96 0,35.32 28.64,63.96 63.96,63.96z"/>
  <path class="fil0" d="M7749.56 6162.71c32.16,0 58.23,-26.07 58.23,-58.23 0,-32.16 -26.07,-58.23 -58.23,-58.23 -32.15,0 -58.23,26.07 -58.23,58.23 0,32.15 26.07,58.23 58.23,58.23z"/>
  <path class="fil0" d="M9357.27 6162.81c32.27,0 58.44,-26.17 58.44,-58.44 0,-32.27 -26.17,-58.44 -58.44,-58.44 -32.27,0 -58.44,26.17 -58.44,58.44 0,32.27 26.17,58.44 58.44,58.44z"/>
  <path class="fil0" d="M8551.65 6130c19.73,0 35.73,-16 35.73,-35.73 0,-19.73 -16,-35.73 -35.73,-35.73 -19.73,0 -35.73,16 -35.73,35.73 0,19.73 16,35.73 35.73,35.73z"/>
  <path class="fil0" d="M8417.27 6232.19c38.49,0 69.69,-31.2 69.69,-69.69 0,-38.49 -31.2,-69.69 -69.69,-69.69 -38.49,0 -69.69,31.2 -69.69,69.69 0,38.49 31.2,69.69 69.69,69.69z"/>
  <path class="fil0" d="M8685.71 6232.29c38.49,0 69.69,-31.2 69.69,-69.69 0,-38.49 -31.2,-69.69 -69.69,-69.69 -38.49,0 -69.69,31.2 -69.69,69.69 0,38.49 31.2,69.69 69.69,69.69z"/>
  <path class="fil0" d="M7487.17 6155.21c16.63,0 30.1,-13.48 30.1,-30.1 0,-16.63 -13.48,-30.11 -30.1,-30.11 -16.63,0 -30.11,13.48 -30.11,30.11 0,16.62 13.48,30.1 30.11,30.1z"/>
  <path class="fil0" d="M9616.75 6155c16.63,0 30.11,-13.48 30.11,-30.1 0,-16.63 -13.48,-30.11 -30.11,-30.11 -16.63,0 -30.1,13.48 -30.1,30.11 0,16.62 13.48,30.1 30.1,30.1z"/>
  <path class="fil0" d="M8148.73 6234.27c35.32,0 63.96,-28.64 63.96,-63.96 0,-35.32 -28.63,-63.96 -63.96,-63.96 -35.32,0 -63.96,28.63 -63.96,63.96 0,35.32 28.64,63.96 63.96,63.96z"/>
  <path class="fil0" d="M8954.36 6234.27c35.27,0 63.85,-28.59 63.85,-63.85 0,-35.27 -28.59,-63.85 -63.85,-63.85 -35.26,0 -63.85,28.58 -63.85,63.85 0,35.26 28.59,63.85 63.85,63.85z"/>
  <path class="fil0" d="M7879.88 6238.96c32.22,0 58.33,-26.11 58.33,-58.33 0,-32.22 -26.11,-58.33 -58.33,-58.33 -32.22,0 -58.33,26.11 -58.33,58.33 0,32.22 26.11,58.33 58.33,58.33z"/>
  <path class="fil0" d="M9223.11 6239.17c32.22,0 58.33,-26.11 58.33,-58.33 0,-32.22 -26.11,-58.33 -58.33,-58.33 -32.22,0 -58.33,26.11 -58.33,58.33 0,32.22 26.11,58.33 58.33,58.33z"/>
  <path class="fil0" d="M7611.75 6227.81c19.73,0 35.73,-16 35.73,-35.73 0,-19.73 -16,-35.73 -35.73,-35.73 -19.73,0 -35.73,16 -35.73,35.73 0,19.73 16,35.73 35.73,35.73z"/>
  <path class="fil0" d="M9491.54 6227.71c19.73,0 35.73,-16 35.73,-35.73 0,-19.73 -16,-35.73 -35.73,-35.73 -19.73,0 -35.73,16 -35.73,35.73 0,19.73 16,35.73 35.73,35.73z"/>
  <path class="fil0" d="M8551.65 6304.37c38.43,0 69.58,-31.15 69.58,-69.58 0,-38.43 -31.16,-69.58 -69.58,-69.58 -38.43,0 -69.59,31.16 -69.59,69.58 0,38.43 31.16,69.58 69.59,69.58z"/>
  <path class="fil0" d="M8283 6304.48c35.26,0 63.85,-28.59 63.85,-63.85 0,-35.27 -28.59,-63.85 -63.85,-63.85 -35.27,0 -63.85,28.58 -63.85,63.85 0,35.26 28.58,63.85 63.85,63.85z"/>
  <path class="fil0" d="M8820.09 6304.48c35.27,0 63.85,-28.59 63.85,-63.85 0,-35.27 -28.58,-63.85 -63.85,-63.85 -35.26,0 -63.85,28.58 -63.85,63.85 0,35.26 28.59,63.85 63.85,63.85z"/>
  <path class="fil0" d="M8014.56 6309.27c32.16,0 58.23,-26.07 58.23,-58.23 0,-32.16 -26.07,-58.23 -58.23,-58.23 -32.15,0 -58.23,26.07 -58.23,58.23 0,32.15 26.07,58.23 58.23,58.23z"/>
  <path class="fil0" d="M9088.52 6309.17c32.22,0 58.33,-26.11 58.33,-58.33 0,-32.22 -26.12,-58.33 -58.33,-58.33 -32.22,0 -58.33,26.11 -58.33,58.33 0,32.22 26.11,58.33 58.33,58.33z"/>
  <path class="fil0" d="M7749.88 6291.67c19.73,0 35.73,-16 35.73,-35.73 0,-19.73 -16,-35.73 -35.73,-35.73 -19.73,0 -35.73,16 -35.73,35.73 0,19.73 16,35.73 35.73,35.73z"/>
  <path class="fil0" d="M9357.06 6291.56c19.68,0 35.63,-15.95 35.63,-35.63 0,-19.68 -15.95,-35.63 -35.63,-35.63 -19.68,0 -35.62,15.95 -35.62,35.63 0,19.68 15.94,35.63 35.62,35.63z"/>
  <path class="fil0" d="M7487.06 6306.67c16.63,0 30.11,-13.48 30.11,-30.1 0,-16.63 -13.48,-30.11 -30.11,-30.11 -16.62,0 -30.1,13.48 -30.1,30.11 0,16.63 13.48,30.1 30.1,30.1z"/>
  <path class="fil0" d="M9616.75 6306.56c16.63,0 30.11,-13.48 30.11,-30.11 0,-16.62 -13.48,-30.1 -30.11,-30.1 -16.63,0 -30.1,13.48 -30.1,30.1 0,16.63 13.48,30.11 30.1,30.11z"/>
  <path class="fil0" d="M8417.17 6378.54c35.44,0 64.17,-28.73 64.17,-64.17 0,-35.44 -28.73,-64.17 -64.17,-64.17 -35.44,0 -64.17,28.73 -64.17,64.17 0,35.44 28.73,64.17 64.17,64.17z"/>
  <path class="fil0" d="M8685.81 6378.44c35.39,0 64.06,-28.68 64.06,-64.06 0,-35.39 -28.68,-64.06 -64.06,-64.06 -35.39,0 -64.06,28.68 -64.06,64.06 0,35.39 28.68,64.06 64.06,64.06z"/>
  <path class="fil0" d="M8148.63 6380.42c32.22,0 58.33,-26.11 58.33,-58.33 0,-32.22 -26.11,-58.33 -58.33,-58.33 -32.22,0 -58.33,26.11 -58.33,58.33 0,32.22 26.11,58.33 58.33,58.33z"/>
  <path class="fil0" d="M8954.46 6380.31c32.16,0 58.23,-26.07 58.23,-58.23 0,-32.15 -26.07,-58.23 -58.23,-58.23 -32.16,0 -58.23,26.07 -58.23,58.23 0,32.16 26.07,58.23 58.23,58.23z"/>
  <path class="fil0" d="M7879.98 6385.11c29.11,0 52.71,-23.59 52.71,-52.71 0,-29.11 -23.59,-52.71 -52.71,-52.71 -29.11,0 -52.71,23.59 -52.71,52.71 0,29.11 23.59,52.71 52.71,52.71z"/>
  <path class="fil0" d="M9223 6385.11c29.17,0 52.81,-23.65 52.81,-52.81 0,-29.17 -23.65,-52.81 -52.81,-52.81 -29.17,0 -52.81,23.65 -52.81,52.81 0,29.17 23.65,52.81 52.81,52.81z"/>
  <path class="fil0" d="M7611.65 6379.27c19.61,0 35.52,-15.91 35.52,-35.52 0,-19.62 -15.91,-35.52 -35.52,-35.52 -19.61,0 -35.52,15.91 -35.52,35.52 0,19.61 15.91,35.52 35.52,35.52z"/>
  <path class="fil0" d="M9491.33 6379.06c19.61,0 35.52,-15.91 35.52,-35.52 0,-19.61 -15.91,-35.52 -35.52,-35.52 -19.61,0 -35.52,15.91 -35.52,35.52 0,19.61 15.91,35.52 35.52,35.52z"/>
  <path class="fil0" d="M8551.65 6456.35c38.49,0 69.69,-31.2 69.69,-69.69 0,-38.49 -31.2,-69.69 -69.69,-69.69 -38.49,0 -69.69,31.2 -69.69,69.69 0,38.49 31.2,69.69 69.69,69.69z"/>
  <path class="fil0" d="M8283 6450.63c32.22,0 58.33,-26.11 58.33,-58.33 0,-32.22 -26.11,-58.33 -58.33,-58.33 -32.22,0 -58.33,26.12 -58.33,58.33 0,32.22 26.11,58.33 58.33,58.33z"/>
  <path class="fil0" d="M8820.09 6450.63c32.22,0 58.33,-26.11 58.33,-58.33 0,-32.22 -26.11,-58.33 -58.33,-58.33 -32.22,0 -58.33,26.12 -58.33,58.33 0,32.22 26.11,58.33 58.33,58.33z"/>
  <path class="fil0" d="M8014.56 6455.31c29.12,0 52.71,-23.59 52.71,-52.7 0,-29.12 -23.59,-52.71 -52.71,-52.71 -29.11,0 -52.7,23.59 -52.7,52.71 0,29.11 23.59,52.7 52.7,52.7z"/>
  <path class="fil0" d="M9088.42 6455.31c29.12,0 52.71,-23.59 52.71,-52.7 0,-29.12 -23.59,-52.71 -52.71,-52.71 -29.11,0 -52.7,23.59 -52.7,52.71 0,29.11 23.59,52.7 52.7,52.7z"/>
  <path class="fil0" d="M7749.88 6443.65c19.68,0 35.63,-15.95 35.63,-35.63 0,-19.68 -15.95,-35.62 -35.63,-35.62 -19.68,0 -35.63,15.94 -35.63,35.62 0,19.68 15.95,35.63 35.63,35.63z"/>
  <path class="fil0" d="M9357.06 6443.96c19.73,0 35.73,-16 35.73,-35.73 0,-19.73 -16,-35.73 -35.73,-35.73 -19.73,0 -35.73,16 -35.73,35.73 0,19.73 16,35.73 35.73,35.73z"/>
  <path class="fil0" d="M7486.96 6458.33c16.51,0 29.9,-13.39 29.9,-29.9 0,-16.51 -13.39,-29.89 -29.9,-29.89 -16.51,0 -29.9,13.39 -29.9,29.89 0,16.51 13.39,29.9 29.9,29.9z"/>
  <path class="fil0" d="M9616.65 6458.23c16.51,0 29.89,-13.39 29.89,-29.89 0,-16.51 -13.39,-29.9 -29.89,-29.9 -16.51,0 -29.9,13.39 -29.9,29.9 0,16.51 13.39,29.89 29.9,29.89z"/>
  <path class="fil0" d="M8417.27 6530.21c35.39,0 64.06,-28.68 64.06,-64.06 0,-35.39 -28.68,-64.06 -64.06,-64.06 -35.39,0 -64.06,28.68 -64.06,64.06 0,35.39 28.67,64.06 64.06,64.06z"/>
  <path class="fil0" d="M8685.81 6530.21c35.39,0 64.06,-28.68 64.06,-64.06 0,-35.39 -28.68,-64.06 -64.06,-64.06 -35.39,0 -64.06,28.68 -64.06,64.06 0,35.39 28.68,64.06 64.06,64.06z"/>
  <path class="fil0" d="M8148.73 6532.29c32.27,0 58.44,-26.17 58.44,-58.44 0,-32.27 -26.17,-58.44 -58.44,-58.44 -32.27,0 -58.44,26.17 -58.44,58.44 0,32.27 26.17,58.44 58.44,58.44z"/>
  <path class="fil0" d="M8954.36 6532.29c32.22,0 58.33,-26.11 58.33,-58.33 0,-32.22 -26.11,-58.33 -58.33,-58.33 -32.22,0 -58.33,26.11 -58.33,58.33 0,32.22 26.11,58.33 58.33,58.33z"/>
  <path class="fil0" d="M7880.4 6519.79c19.73,0 35.73,-16 35.73,-35.73 0,-19.73 -16,-35.73 -35.73,-35.73 -19.73,0 -35.73,16 -35.73,35.73 0,19.73 16,35.73 35.73,35.73z"/>
  <path class="fil0" d="M9222.59 6519.79c19.68,0 35.63,-15.95 35.63,-35.63 0,-19.68 -15.95,-35.62 -35.63,-35.62 -19.68,0 -35.63,15.94 -35.63,35.62 0,19.68 15.95,35.63 35.63,35.63z"/>
  <path class="fil0" d="M7611.86 6531.04c19.68,0 35.62,-15.95 35.62,-35.63 0,-19.68 -15.94,-35.63 -35.62,-35.63 -19.68,0 -35.63,15.95 -35.63,35.63 0,19.68 15.95,35.63 35.63,35.63z"/>
  <path class="fil0" d="M9491.23 6531.15c19.73,0 35.73,-16 35.73,-35.73 0,-19.73 -16,-35.73 -35.73,-35.73 -19.73,0 -35.73,16 -35.73,35.73 0,19.73 16,35.73 35.73,35.73z"/>
  <path class="fil0" d="M8551.65 6608.23c38.49,0 69.69,-31.2 69.69,-69.69 0,-38.49 -31.2,-69.69 -69.69,-69.69 -38.49,0 -69.69,31.2 -69.69,69.69 0,38.49 31.2,69.69 69.69,69.69z"/>
  <path class="fil0" d="M8282.8 6602.61c32.27,0 58.44,-26.17 58.44,-58.44 0,-32.27 -26.17,-58.44 -58.44,-58.44 -32.27,0 -58.44,26.17 -58.44,58.44 0,32.27 26.17,58.44 58.44,58.44z"/>
  <path class="fil0" d="M8819.98 6602.61c32.27,0 58.44,-26.17 58.44,-58.44 0,-32.27 -26.17,-58.44 -58.44,-58.44 -32.27,0 -58.44,26.17 -58.44,58.44 0,32.27 26.17,58.44 58.44,58.44z"/>
  <path class="fil0" d="M8014.36 6606.87c29.05,0 52.6,-23.55 52.6,-52.6 0,-29.05 -23.55,-52.61 -52.6,-52.61 -29.06,0 -52.61,23.56 -52.61,52.61 0,29.05 23.55,52.6 52.61,52.6z"/>
  <path class="fil0" d="M9088.52 6606.87c29,0 52.5,-23.5 52.5,-52.5 0,-29 -23.5,-52.5 -52.5,-52.5 -28.99,0 -52.5,23.5 -52.5,52.5 0,29 23.51,52.5 52.5,52.5z"/>
  <path class="fil0" d="M7749.88 6595.21c19.68,0 35.63,-15.95 35.63,-35.63 0,-19.68 -15.95,-35.63 -35.63,-35.63 -19.68,0 -35.63,15.95 -35.63,35.63 0,19.68 15.95,35.63 35.63,35.63z"/>
  <path class="fil0" d="M9357.27 6595.42c19.73,0 35.73,-16 35.73,-35.73 0,-19.73 -16,-35.73 -35.73,-35.73 -19.73,0 -35.73,16 -35.73,35.73 0,19.73 16,35.73 35.73,35.73z"/>
  <path class="fil0" d="M7487.06 6610.11c16.57,0 30,-13.43 30,-30 0,-16.57 -13.43,-30 -30,-30 -16.57,0 -30,13.43 -30,30 0,16.57 13.43,30 30,30z"/>
  <path class="fil0" d="M9616.75 6610.21c16.57,0 30,-13.43 30,-30 0,-16.57 -13.43,-30 -30,-30 -16.57,0 -30,13.43 -30,30 0,16.57 13.43,30 30,30z"/>
  <path class="fil0" d="M8417.27 6681.98c35.44,0 64.17,-28.73 64.17,-64.17 0,-35.44 -28.73,-64.17 -64.17,-64.17 -35.44,0 -64.17,28.73 -64.17,64.17 0,35.44 28.73,64.17 64.17,64.17z"/>
  <path class="fil0" d="M8685.81 6681.77c35.39,0 64.06,-28.68 64.06,-64.06 0,-35.39 -28.68,-64.06 -64.06,-64.06 -35.39,0 -64.06,28.68 -64.06,64.06 0,35.39 28.68,64.06 64.06,64.06z"/>
  <path class="fil0" d="M8148.63 6678.33c29.06,0 52.61,-23.55 52.61,-52.61 0,-29.05 -23.55,-52.6 -52.61,-52.6 -29.05,0 -52.6,23.55 -52.6,52.6 0,29.06 23.55,52.61 52.6,52.61z"/>
  <path class="fil0" d="M8954.46 6678.54c29.17,0 52.81,-23.65 52.81,-52.81 0,-29.17 -23.65,-52.81 -52.81,-52.81 -29.17,0 -52.81,23.65 -52.81,52.81 0,29.17 23.65,52.81 52.81,52.81z"/>
  <path class="fil0" d="M7880.19 6671.46c19.68,0 35.63,-15.94 35.63,-35.62 0,-19.68 -15.95,-35.63 -35.63,-35.63 -19.68,0 -35.63,15.95 -35.63,35.63 0,19.68 15.95,35.62 35.63,35.62z"/>
  <path class="fil0" d="M9222.59 6671.35c19.68,0 35.63,-15.95 35.63,-35.63 0,-19.68 -15.95,-35.62 -35.63,-35.62 -19.68,0 -35.63,15.94 -35.63,35.62 0,19.68 15.95,35.63 35.63,35.63z"/>
  <path class="fil0" d="M7611.86 6683.02c19.68,0 35.62,-15.94 35.62,-35.62 0,-19.68 -15.94,-35.63 -35.62,-35.63 -19.68,0 -35.63,15.95 -35.63,35.63 0,19.68 15.95,35.62 35.63,35.62z"/>
  <path class="fil0" d="M9491.65 6683.13c19.68,0 35.62,-15.95 35.62,-35.63 0,-19.68 -15.94,-35.63 -35.62,-35.63 -19.68,0 -35.63,15.95 -35.63,35.63 0,19.68 15.95,35.63 35.63,35.63z"/>
  <path class="fil0" d="M8551.75 6759.9c38.49,0 69.69,-31.2 69.69,-69.69 0,-38.49 -31.2,-69.69 -69.69,-69.69 -38.49,0 -69.69,31.2 -69.69,69.69 0,38.49 31.2,69.69 69.69,69.69z"/>
  <path class="fil0" d="M8283 6754.37c32.15,0 58.23,-26.07 58.23,-58.23 0,-32.16 -26.07,-58.23 -58.23,-58.23 -32.16,0 -58.23,26.07 -58.23,58.23 0,32.16 26.07,58.23 58.23,58.23z"/>
  <path class="fil0" d="M8819.98 6754.48c32.27,0 58.44,-26.17 58.44,-58.44 0,-32.27 -26.17,-58.44 -58.44,-58.44 -32.27,0 -58.44,26.17 -58.44,58.44 0,32.27 26.17,58.44 58.44,58.44z"/>
  <path class="fil0" d="M8014.25 6741.77c19.68,0 35.63,-15.95 35.63,-35.63 0,-19.68 -15.95,-35.63 -35.63,-35.63 -19.68,0 -35.63,15.95 -35.63,35.63 0,19.68 15.95,35.63 35.63,35.63z"/>
  <path class="fil0" d="M9088.73 6741.77c19.79,0 35.83,-16.04 35.83,-35.83 0,-19.79 -16.04,-35.83 -35.83,-35.83 -19.79,0 -35.83,16.04 -35.83,35.83 0,19.79 16.04,35.83 35.83,35.83z"/>
  <path class="fil0" d="M7749.88 6747.08c19.68,0 35.63,-15.95 35.63,-35.63 0,-19.67 -15.95,-35.62 -35.63,-35.62 -19.68,0 -35.63,15.95 -35.63,35.62 0,19.68 15.95,35.63 35.63,35.63z"/>
  <path class="fil0" d="M9357.17 6746.87c19.73,0 35.73,-16 35.73,-35.73 0,-19.73 -16,-35.73 -35.73,-35.73 -19.73,0 -35.73,16 -35.73,35.73 0,19.73 16,35.73 35.73,35.73z"/>
  <path class="fil0" d="M7487.06 6762.08c16.63,0 30.11,-13.48 30.11,-30.1 0,-16.63 -13.48,-30.11 -30.11,-30.11 -16.62,0 -30.1,13.48 -30.1,30.11 0,16.63 13.48,30.1 30.1,30.1z"/>
  <path class="fil0" d="M9616.75 6762.08c16.63,0 30.11,-13.48 30.11,-30.1 0,-16.63 -13.48,-30.11 -30.11,-30.11 -16.63,0 -30.1,13.48 -30.1,30.11 0,16.63 13.48,30.1 30.1,30.1z"/>
  <path class="fil0" d="M8417.17 6833.85c35.44,0 64.17,-28.73 64.17,-64.17 0,-35.44 -28.73,-64.17 -64.17,-64.17 -35.44,0 -64.17,28.73 -64.17,64.17 0,35.44 28.73,64.17 64.17,64.17z"/>
  <path class="fil0" d="M8685.71 6833.65c35.33,0 63.96,-28.63 63.96,-63.96 0,-35.32 -28.63,-63.96 -63.96,-63.96 -35.32,0 -63.96,28.64 -63.96,63.96 0,35.32 28.63,63.96 63.96,63.96z"/>
  <path class="fil0" d="M8148.52 6830.21c29.11,0 52.71,-23.59 52.71,-52.71 0,-29.11 -23.59,-52.71 -52.71,-52.71 -29.11,0 -52.71,23.59 -52.71,52.71 0,29.11 23.59,52.71 52.71,52.71z"/>
  <path class="fil0" d="M8954.46 6830.11c29.11,0 52.71,-23.59 52.71,-52.71 0,-29.11 -23.59,-52.71 -52.71,-52.71 -29.11,0 -52.71,23.59 -52.71,52.71 0,29.11 23.59,52.71 52.71,52.71z"/>
  <path class="fil0" d="M7879.98 6823.54c19.68,0 35.63,-15.95 35.63,-35.63 0,-19.68 -15.95,-35.63 -35.63,-35.63 -19.68,0 -35.62,15.95 -35.62,35.63 0,19.68 15.94,35.63 35.62,35.63z"/>
  <path class="fil0" d="M9222.48 6823.54c19.68,0 35.63,-15.95 35.63,-35.63 0,-19.68 -15.95,-35.63 -35.63,-35.63 -19.68,0 -35.62,15.95 -35.62,35.63 0,19.68 15.94,35.63 35.62,35.63z"/>
  <path class="fil0" d="M7611.75 6834.69c19.68,0 35.63,-15.95 35.63,-35.63 0,-19.68 -15.95,-35.63 -35.63,-35.63 -19.68,0 -35.63,15.95 -35.63,35.63 0,19.68 15.95,35.63 35.63,35.63z"/>
  <path class="fil0" d="M9491.33 6834.58c19.61,0 35.52,-15.91 35.52,-35.52 0,-19.61 -15.91,-35.52 -35.52,-35.52 -19.61,0 -35.52,15.91 -35.52,35.52 0,19.61 15.91,35.52 35.52,35.52z"/>
  <path class="fil0" d="M8551.54 6911.56c38.49,0 69.69,-31.2 69.69,-69.69 0,-38.49 -31.2,-69.69 -69.69,-69.69 -38.49,0 -69.69,31.2 -69.69,69.69 0,38.49 31.2,69.69 69.69,69.69z"/>
  <path class="fil0" d="M8283 6905.73c32.15,0 58.23,-26.07 58.23,-58.23 0,-32.16 -26.07,-58.23 -58.23,-58.23 -32.16,0 -58.23,26.07 -58.23,58.23 0,32.16 26.07,58.23 58.23,58.23z"/>
  <path class="fil0" d="M8819.88 6905.83c32.16,0 58.23,-26.07 58.23,-58.23 0,-32.16 -26.07,-58.23 -58.23,-58.23 -32.16,0 -58.23,26.07 -58.23,58.23 0,32.15 26.07,58.23 58.23,58.23z"/>
  <path class="fil0" d="M8014.25 6893.54c19.68,0 35.63,-15.95 35.63,-35.63 0,-19.68 -15.95,-35.63 -35.63,-35.63 -19.68,0 -35.63,15.95 -35.63,35.63 0,19.68 15.95,35.63 35.63,35.63z"/>
  <path class="fil0" d="M9088.63 6893.65c19.73,0 35.73,-16 35.73,-35.73 0,-19.73 -16,-35.73 -35.73,-35.73 -19.73,0 -35.73,16 -35.73,35.73 0,19.73 16,35.73 35.73,35.73z"/>
  <path class="fil0" d="M7749.88 6898.96c19.68,0 35.63,-15.94 35.63,-35.62 0,-19.68 -15.95,-35.63 -35.63,-35.63 -19.68,0 -35.63,15.95 -35.63,35.63 0,19.68 15.95,35.62 35.63,35.62z"/>
  <path class="fil0" d="M9357.27 6899.06c19.61,0 35.52,-15.91 35.52,-35.52 0,-19.61 -15.91,-35.52 -35.52,-35.52 -19.61,0 -35.52,15.91 -35.52,35.52 0,19.61 15.91,35.52 35.52,35.52z"/>
  <path class="fil0" d="M7486.96 6913.65c16.51,0 29.9,-13.39 29.9,-29.89 0,-16.51 -13.39,-29.9 -29.9,-29.9 -16.51,0 -29.9,13.39 -29.9,29.9 0,16.51 13.39,29.89 29.9,29.89z"/>
  <path class="fil0" d="M9616.86 6913.85c16.57,0 30,-13.43 30,-30 0,-16.57 -13.43,-30 -30,-30 -16.57,0 -30,13.43 -30,30 0,16.57 13.43,30 30,30z"/>
  <path class="fil0" d="M8417.27 6985.62c35.32,0 63.96,-28.64 63.96,-63.96 0,-35.32 -28.64,-63.95 -63.96,-63.95 -35.32,0 -63.96,28.63 -63.96,63.95 0,35.32 28.63,63.96 63.96,63.96z"/>
  <path class="fil0" d="M8685.71 6985.62c35.44,0 64.17,-28.73 64.17,-64.17 0,-35.43 -28.73,-64.16 -64.17,-64.16 -35.44,0 -64.17,28.73 -64.17,64.16 0,35.44 28.73,64.17 64.17,64.17z"/>
  <path class="fil0" d="M8148.83 6964.89c19.68,0 35.63,-15.95 35.63,-35.63 0,-19.67 -15.95,-35.62 -35.63,-35.62 -19.68,0 -35.63,15.95 -35.63,35.62 0,19.68 15.95,35.63 35.63,35.63z"/>
  <path class="fil0" d="M8953.94 6965c19.73,0 35.73,-16 35.73,-35.73 0,-19.72 -16,-35.72 -35.73,-35.72 -19.73,0 -35.73,16 -35.73,35.72 0,19.73 16,35.73 35.73,35.73z"/>
  <path class="fil0" d="M7880.3 6975.31c19.73,0 35.73,-16 35.73,-35.73 0,-19.73 -16,-35.72 -35.73,-35.72 -19.73,0 -35.73,16 -35.73,35.72 0,19.73 16,35.73 35.73,35.73z"/>
  <path class="fil0" d="M9222.69 6975.1c19.68,0 35.63,-15.95 35.63,-35.63 0,-19.68 -15.95,-35.62 -35.63,-35.62 -19.68,0 -35.63,15.94 -35.63,35.62 0,19.68 15.95,35.63 35.63,35.63z"/>
  <path class="fil0" d="M7611.75 6980.72c16.57,0 30,-13.43 30,-30 0,-16.57 -13.43,-30 -30,-30 -16.57,0 -30,13.43 -30,30 0,16.57 13.43,30 30,30z"/>
  <path class="fil0" d="M9491.23 6980.41c16.46,0 29.79,-13.33 29.79,-29.79 0,-16.46 -13.33,-29.79 -29.79,-29.79 -16.46,0 -29.79,13.33 -29.79,29.79 0,16.46 13.33,29.79 29.79,29.79z"/>
  <path class="fil0" d="M8551.75 7063.33c38.37,0 69.48,-31.11 69.48,-69.48 0,-38.37 -31.11,-69.48 -69.48,-69.48 -38.37,0 -69.48,31.11 -69.48,69.48 0,38.37 31.11,69.48 69.48,69.48z"/>
  <path class="fil0" d="M8283 7057.7c32.22,0 58.33,-26.11 58.33,-58.33 0,-32.22 -26.11,-58.33 -58.33,-58.33 -32.22,0 -58.33,26.11 -58.33,58.33 0,32.22 26.11,58.33 58.33,58.33z"/>
  <path class="fil0" d="M8820.09 7057.7c32.22,0 58.33,-26.11 58.33,-58.33 0,-32.22 -26.11,-58.33 -58.33,-58.33 -32.22,0 -58.33,26.11 -58.33,58.33 0,32.22 26.11,58.33 58.33,58.33z"/>
  <path class="fil0" d="M8014.15 7045.2c19.61,0 35.52,-15.91 35.52,-35.52 0,-19.61 -15.91,-35.52 -35.52,-35.52 -19.61,0 -35.52,15.91 -35.52,35.52 0,19.61 15.91,35.52 35.52,35.52z"/>
  <path class="fil0" d="M9088.73 7045.62c19.73,0 35.73,-16 35.73,-35.73 0,-19.73 -16,-35.73 -35.73,-35.73 -19.73,0 -35.73,16 -35.73,35.73 0,19.73 16,35.73 35.73,35.73z"/>
  <path class="fil0" d="M7749.67 7045c16.57,0 30,-13.43 30,-30 0,-16.57 -13.43,-30 -30,-30 -16.57,0 -30,13.43 -30,30 0,16.57 13.43,30 30,30z"/>
  <path class="fil0" d="M9357.06 7045.2c16.69,0 30.21,-13.52 30.21,-30.21 0,-16.69 -13.52,-30.21 -30.21,-30.21 -16.69,0 -30.2,13.52 -30.2,30.21 0,16.69 13.52,30.21 30.2,30.21z"/>
  <path class="fil0" d="M8417.27 7137.19c35.39,0 64.06,-28.68 64.06,-64.06 0,-35.39 -28.68,-64.06 -64.06,-64.06 -35.39,0 -64.06,28.68 -64.06,64.06 0,35.39 28.67,64.06 64.06,64.06z"/>
  <path class="fil0" d="M8685.81 7137.19c35.39,0 64.06,-28.68 64.06,-64.06 0,-35.39 -28.68,-64.06 -64.06,-64.06 -35.39,0 -64.06,28.68 -64.06,64.06 0,35.39 28.68,64.06 64.06,64.06z"/>
  <path class="fil0" d="M8148.83 7116.45c19.68,0 35.63,-15.94 35.63,-35.62 0,-19.68 -15.95,-35.63 -35.63,-35.63 -19.68,0 -35.63,15.95 -35.63,35.63 0,19.68 15.95,35.62 35.63,35.62z"/>
  <path class="fil0" d="M8954.15 7116.87c19.73,0 35.73,-16 35.73,-35.73 0,-19.73 -16,-35.73 -35.73,-35.73 -19.73,0 -35.73,16 -35.73,35.73 0,19.73 16,35.73 35.73,35.73z"/>
  <path class="fil0" d="M7880.3 7121.46c16.69,0 30.21,-13.52 30.21,-30.21 0,-16.69 -13.52,-30.21 -30.21,-30.21 -16.69,0 -30.21,13.52 -30.21,30.21 0,16.69 13.52,30.21 30.21,30.21z"/>
  <path class="fil0" d="M9223 7121.25c16.51,0 29.89,-13.39 29.89,-29.9 0,-16.51 -13.39,-29.9 -29.89,-29.9 -16.51,0 -29.9,13.39 -29.9,29.9 0,16.51 13.39,29.9 29.9,29.9z"/>
  <path class="fil0" d="M8551.65 7215.31c38.49,0 69.69,-31.2 69.69,-69.69 0,-38.49 -31.2,-69.69 -69.69,-69.69 -38.49,0 -69.69,31.2 -69.69,69.69 0,38.49 31.2,69.69 69.69,69.69z"/>
  <path class="fil0" d="M8282.8 7186.98c19.68,0 35.62,-15.95 35.62,-35.63 0,-19.68 -15.94,-35.63 -35.62,-35.63 -19.68,0 -35.63,15.95 -35.63,35.63 0,19.68 15.95,35.63 35.63,35.63z"/>
  <path class="fil0" d="M8820.3 7186.98c19.73,0 35.73,-16 35.73,-35.73 0,-19.73 -16,-35.73 -35.73,-35.73 -19.73,0 -35.73,16 -35.73,35.73 0,19.73 16,35.73 35.73,35.73z"/>
  <path class="fil0" d="M9088.52 7191.77c16.69,0 30.21,-13.52 30.21,-30.21 0,-16.69 -13.52,-30.21 -30.21,-30.21 -16.69,0 -30.21,13.52 -30.21,30.21 0,16.69 13.52,30.21 30.21,30.21z"/>
  <path class="fil0" d="M8014.25 7203.54c16.51,0 29.9,-13.39 29.9,-29.9 0,-16.51 -13.39,-29.89 -29.9,-29.89 -16.51,0 -29.89,13.38 -29.89,29.89 0,16.51 13.38,29.9 29.89,29.9z"/>
  <path class="fil0" d="M8417.17 7283.33c32.27,0 58.44,-26.17 58.44,-58.44 0,-32.27 -26.17,-58.44 -58.44,-58.44 -32.27,0 -58.44,26.17 -58.44,58.44 0,32.27 26.17,58.44 58.44,58.44z"/>
  <path class="fil0" d="M8685.81 7283.33c32.27,0 58.44,-26.17 58.44,-58.44 0,-32.27 -26.17,-58.44 -58.44,-58.44 -32.27,0 -58.44,26.17 -58.44,58.44 0,32.27 26.17,58.44 58.44,58.44z"/>
  <path class="fil0" d="M8148.73 7262.6c16.46,0 29.79,-13.33 29.79,-29.8 0,-16.46 -13.33,-29.79 -29.79,-29.79 -16.46,0 -29.79,13.33 -29.79,29.79 0,16.46 13.33,29.8 29.79,29.8z"/>
  <path class="fil0" d="M8954.36 7262.81c16.51,0 29.89,-13.38 29.89,-29.89 0,-16.51 -13.39,-29.9 -29.89,-29.9 -16.51,0 -29.9,13.39 -29.9,29.9 0,16.51 13.39,29.89 29.9,29.89z"/>
  <path class="fil0" d="M8551.65 7366.98c38.49,0 69.69,-31.2 69.69,-69.69 0,-38.49 -31.2,-69.69 -69.69,-69.69 -38.49,0 -69.69,31.2 -69.69,69.69 0,38.49 31.2,69.69 69.69,69.69z"/>
  <path class="fil0" d="M8283 7333.02c16.57,0 30,-13.43 30,-30 0,-16.57 -13.43,-30 -30,-30 -16.57,0 -30,13.43 -30,30 0,16.57 13.43,30 30,30z"/>
  <path class="fil0" d="M8820.19 7333.43c16.74,0 30.31,-13.57 30.31,-30.31 0,-16.74 -13.57,-30.31 -30.31,-30.31 -16.74,0 -30.31,13.57 -30.31,30.31 0,16.74 13.57,30.31 30.31,30.31z"/>
  <path class="fil0" d="M8417.17 7407.08c16.74,0 30.31,-13.57 30.31,-30.31 0,-16.74 -13.57,-30.31 -30.31,-30.31 -16.74,0 -30.31,13.57 -30.31,30.31 0,16.74 13.57,30.31 30.31,30.31z"/>
  <path class="fil0" d="M8685.71 7407.19c16.8,0 30.42,-13.61 30.42,-30.42 0,-16.8 -13.61,-30.42 -30.42,-30.42 -16.8,0 -30.41,13.61 -30.41,30.42 0,16.8 13.61,30.42 30.41,30.42z"/>
  <path class="fil0" d="M8551.33 7507.29c32.16,0 58.23,-26.07 58.23,-58.23 0,-32.16 -26.07,-58.23 -58.23,-58.23 -32.15,0 -58.23,26.07 -58.23,58.23 0,32.16 26.07,58.23 58.23,58.23z"/>
 </g>
</svg>
