<svg width="1008" height="445" viewBox="0 0 1008 445" fill="none" xmlns="http://www.w3.org/2000/svg">
<path d="M904 392.9V395.32C903.3 396.26 902.05 396.733 900.25 396.74C894.61 396.76 888.483 396.757 881.87 396.73C881.333 396.73 880.81 396.561 880.374 396.249C879.938 395.937 879.611 395.497 879.44 394.99L876.14 385.38C875.951 384.831 875.596 384.355 875.124 384.018C874.653 383.681 874.089 383.5 873.51 383.5H846.06C845.579 383.5 845.11 383.649 844.715 383.926C844.319 384.203 844.018 384.595 843.85 385.05L840.25 395C840.062 395.513 839.721 395.956 839.274 396.269C838.827 396.582 838.295 396.75 837.75 396.75H818.48C818.027 396.75 817.582 396.639 817.182 396.426C816.782 396.214 816.441 395.907 816.187 395.532C815.933 395.157 815.775 394.725 815.727 394.275C815.679 393.825 815.742 393.37 815.91 392.95L850.14 307.55C850.352 307.019 850.718 306.563 851.19 306.242C851.663 305.921 852.22 305.75 852.79 305.75H867.5C868.032 305.751 868.551 305.911 868.991 306.21C869.431 306.51 869.772 306.935 869.97 307.43L904 392.9ZM859.76 335.26L851.94 361.24C851.187 363.753 852.123 365.007 854.75 365L866.15 364.99C866.527 364.991 866.898 364.903 867.235 364.734C867.572 364.565 867.864 364.319 868.089 364.017C868.313 363.715 868.464 363.364 868.528 362.993C868.593 362.622 868.569 362.24 868.46 361.88L860.44 335.26C860.213 334.507 859.987 334.507 859.76 335.26Z" fill="#133F6E"/>
<path d="M472.51 52.2C474.09 52.2 475.37 50.9195 475.37 49.34C475.37 47.7605 474.09 46.48 472.51 46.48C470.931 46.48 469.65 47.7605 469.65 49.34C469.65 50.9195 470.931 52.2 472.51 52.2Z" fill="#133F6E"/>
<path d="M459.62 58.79C461.222 58.79 462.52 57.4916 462.52 55.89C462.52 54.2884 461.222 52.99 459.62 52.99C458.018 52.99 456.72 54.2884 456.72 55.89C456.72 57.4916 458.018 58.79 459.62 58.79Z" fill="#133F6E"/>
<path d="M485.4 58.77C486.996 58.77 488.29 57.4761 488.29 55.88C488.29 54.2839 486.996 52.99 485.4 52.99C483.804 52.99 482.51 54.2839 482.51 55.88C482.51 57.4761 483.804 58.77 485.4 58.77Z" fill="#133F6E"/>
<path d="M446.73 65.13C448.31 65.13 449.59 63.8495 449.59 62.27C449.59 60.6905 448.31 59.41 446.73 59.41C445.15 59.41 443.87 60.6905 443.87 62.27C443.87 63.8495 445.15 65.13 446.73 65.13Z" fill="#133F6E"/>
<path d="M472.54 66.24C474.429 66.24 475.96 64.7088 475.96 62.82C475.96 60.9312 474.429 59.4 472.54 59.4C470.651 59.4 469.12 60.9312 469.12 62.82C469.12 64.7088 470.651 66.24 472.54 66.24Z" fill="#133F6E"/>
<path d="M498.3 65.13C499.885 65.13 501.17 63.8451 501.17 62.26C501.17 60.6749 499.885 59.39 498.3 59.39C496.715 59.39 495.43 60.6749 495.43 62.26C495.43 63.8451 496.715 65.13 498.3 65.13Z" fill="#133F6E"/>
<path d="M459.63 72.79C461.524 72.79 463.06 71.2543 463.06 69.36C463.06 67.4657 461.524 65.93 459.63 65.93C457.736 65.93 456.2 67.4657 456.2 69.36C456.2 71.2543 457.736 72.79 459.63 72.79Z" fill="#133F6E"/>
<path d="M485.39 72.79C487.284 72.79 488.82 71.2543 488.82 69.36C488.82 67.4657 487.284 65.93 485.39 65.93C483.496 65.93 481.96 67.4657 481.96 69.36C481.96 71.2543 483.496 72.79 485.39 72.79Z" fill="#133F6E"/>
<path d="M433.85 71.88C435.43 71.88 436.71 70.5995 436.71 69.02C436.71 67.4405 435.43 66.16 433.85 66.16C432.27 66.16 430.99 67.4405 430.99 69.02C430.99 70.5995 432.27 71.88 433.85 71.88Z" fill="#133F6E"/>
<path d="M511.18 71.87C512.76 71.87 514.04 70.5895 514.04 69.01C514.04 67.4305 512.76 66.15 511.18 66.15C509.601 66.15 508.32 67.4305 508.32 69.01C508.32 70.5895 509.601 71.87 511.18 71.87Z" fill="#133F6E"/>
<path d="M446.7 79.2C448.594 79.2 450.13 77.6643 450.13 75.77C450.13 73.8757 448.594 72.34 446.7 72.34C444.806 72.34 443.27 73.8757 443.27 75.77C443.27 77.6643 444.806 79.2 446.7 79.2Z" fill="#133F6E"/>
<path d="M498.31 79.18C500.199 79.18 501.73 77.6488 501.73 75.76C501.73 73.8712 500.199 72.34 498.31 72.34C496.421 72.34 494.89 73.8712 494.89 75.76C494.89 77.6488 496.421 79.18 498.31 79.18Z" fill="#133F6E"/>
<path d="M420.95 78.54C422.546 78.54 423.84 77.2461 423.84 75.65C423.84 74.0539 422.546 72.76 420.95 72.76C419.354 72.76 418.06 74.0539 418.06 75.65C418.06 77.2461 419.354 78.54 420.95 78.54Z" fill="#133F6E"/>
<path d="M524.09 78.55C525.686 78.55 526.98 77.2561 526.98 75.66C526.98 74.0639 525.686 72.77 524.09 72.77C522.494 72.77 521.2 74.0639 521.2 75.66C521.2 77.2561 522.494 78.55 524.09 78.55Z" fill="#133F6E"/>
<path d="M472.53 79.74C474.419 79.74 475.95 78.2088 475.95 76.32C475.95 74.4312 474.419 72.9 472.53 72.9C470.641 72.9 469.11 74.4312 469.11 76.32C469.11 78.2088 470.641 79.74 472.53 79.74Z" fill="#133F6E"/>
<path d="M433.84 85.9C435.729 85.9 437.26 84.3688 437.26 82.48C437.26 80.5912 435.729 79.06 433.84 79.06C431.951 79.06 430.42 80.5912 430.42 82.48C430.42 84.3688 431.951 85.9 433.84 85.9Z" fill="#133F6E"/>
<path d="M511.19 85.93C513.079 85.93 514.61 84.3988 514.61 82.51C514.61 80.6212 513.079 79.09 511.19 79.09C509.301 79.09 507.77 80.6212 507.77 82.51C507.77 84.3988 509.301 85.93 511.19 85.93Z" fill="#133F6E"/>
<path d="M408.08 85.28C409.676 85.28 410.97 83.9861 410.97 82.39C410.97 80.7939 409.676 79.5 408.08 79.5C406.484 79.5 405.19 80.7939 405.19 82.39C405.19 83.9861 406.484 85.28 408.08 85.28Z" fill="#133F6E"/>
<path d="M459.63 86.29C461.524 86.29 463.06 84.7543 463.06 82.86C463.06 80.9657 461.524 79.43 459.63 79.43C457.736 79.43 456.2 80.9657 456.2 82.86C456.2 84.7543 457.736 86.29 459.63 86.29Z" fill="#133F6E"/>
<path d="M485.4 86.27C487.289 86.27 488.82 84.7388 488.82 82.85C488.82 80.9612 487.289 79.43 485.4 79.43C483.511 79.43 481.98 80.9612 481.98 82.85C481.98 84.7388 483.511 86.27 485.4 86.27Z" fill="#133F6E"/>
<path d="M536.99 85.28C538.581 85.28 539.87 83.9906 539.87 82.4C539.87 80.8094 538.581 79.52 536.99 79.52C535.399 79.52 534.11 80.8094 534.11 82.4C534.11 83.9906 535.399 85.28 536.99 85.28Z" fill="#133F6E"/>
<path d="M395.54 91.46C397.131 91.46 398.42 90.1706 398.42 88.58C398.42 86.9894 397.131 85.7 395.54 85.7C393.949 85.7 392.66 86.9894 392.66 88.58C392.66 90.1706 393.949 91.46 395.54 91.46Z" fill="#133F6E"/>
<path d="M420.92 92.55C422.809 92.55 424.34 91.0188 424.34 89.13C424.34 87.2412 422.809 85.71 420.92 85.71C419.031 85.71 417.5 87.2412 417.5 89.13C417.5 91.0188 419.031 92.55 420.92 92.55Z" fill="#133F6E"/>
<path d="M446.71 92.65C448.599 92.65 450.13 91.1188 450.13 89.23C450.13 87.3412 448.599 85.81 446.71 85.81C444.821 85.81 443.29 87.3412 443.29 89.23C443.29 91.1188 444.821 92.65 446.71 92.65Z" fill="#133F6E"/>
<path d="M498.32 92.67C500.209 92.67 501.74 91.1388 501.74 89.25C501.74 87.3612 500.209 85.83 498.32 85.83C496.431 85.83 494.9 87.3612 494.9 89.25C494.9 91.1388 496.431 92.67 498.32 92.67Z" fill="#133F6E"/>
<path d="M524.1 92.55C525.989 92.55 527.52 91.0188 527.52 89.13C527.52 87.2412 525.989 85.71 524.1 85.71C522.211 85.71 520.68 87.2412 520.68 89.13C520.68 91.0188 522.211 92.55 524.1 92.55Z" fill="#133F6E"/>
<path d="M549.86 91.47C551.462 91.47 552.76 90.1716 552.76 88.57C552.76 86.9684 551.462 85.67 549.86 85.67C548.258 85.67 546.96 86.9684 546.96 88.57C546.96 90.1716 548.258 91.47 549.86 91.47Z" fill="#133F6E"/>
<path d="M472.53 93.22C474.413 93.22 475.94 91.6933 475.94 89.81C475.94 87.9267 474.413 86.4 472.53 86.4C470.647 86.4 469.12 87.9267 469.12 89.81C469.12 91.6933 470.647 93.22 472.53 93.22Z" fill="#133F6E"/>
<path d="M408.08 99.32C409.969 99.32 411.5 97.7888 411.5 95.9C411.5 94.0112 409.969 92.48 408.08 92.48C406.191 92.48 404.66 94.0112 404.66 95.9C404.66 97.7888 406.191 99.32 408.08 99.32Z" fill="#133F6E"/>
<path d="M433.84 99.37C435.723 99.37 437.25 97.8433 437.25 95.96C437.25 94.0767 435.723 92.55 433.84 92.55C431.957 92.55 430.43 94.0767 430.43 95.96C430.43 97.8433 431.957 99.37 433.84 99.37Z" fill="#133F6E"/>
<path d="M511.18 99.39C513.069 99.39 514.6 97.8588 514.6 95.97C514.6 94.0812 513.069 92.55 511.18 92.55C509.291 92.55 507.76 94.0812 507.76 95.97C507.76 97.8588 509.291 99.39 511.18 99.39Z" fill="#133F6E"/>
<path d="M536.94 99.3C538.823 99.3 540.35 97.7733 540.35 95.89C540.35 94.0067 538.823 92.48 536.94 92.48C535.057 92.48 533.53 94.0067 533.53 95.89C533.53 97.7733 535.057 99.3 536.94 99.3Z" fill="#133F6E"/>
<path d="M382.29 98.78C383.886 98.78 385.18 97.4861 385.18 95.89C385.18 94.2939 383.886 93 382.29 93C380.694 93 379.4 94.2939 379.4 95.89C379.4 97.4861 380.694 98.78 382.29 98.78Z" fill="#133F6E"/>
<path d="M459.63 99.77C461.524 99.77 463.06 98.2343 463.06 96.34C463.06 94.4457 461.524 92.91 459.63 92.91C457.736 92.91 456.2 94.4457 456.2 96.34C456.2 98.2343 457.736 99.77 459.63 99.77Z" fill="#133F6E"/>
<path d="M485.41 99.76C487.299 99.76 488.83 98.2288 488.83 96.34C488.83 94.4512 487.299 92.92 485.41 92.92C483.521 92.92 481.99 94.4512 481.99 96.34C481.99 98.2288 483.521 99.76 485.41 99.76Z" fill="#133F6E"/>
<path d="M562.75 98.74C564.33 98.74 565.61 97.4595 565.61 95.88C565.61 94.3005 564.33 93.02 562.75 93.02C561.17 93.02 559.89 94.3005 559.89 95.88C559.89 97.4595 561.17 98.74 562.75 98.74Z" fill="#133F6E"/>
<path d="M371.95 106.84C374.446 106.84 376.47 104.816 376.47 102.32C376.47 99.8237 374.446 97.8 371.95 97.8C369.454 97.8 367.43 99.8237 367.43 102.32C367.43 104.816 369.454 106.84 371.95 106.84Z" fill="#133F6E"/>
<path d="M572.99 106.82C575.486 106.82 577.51 104.796 577.51 102.3C577.51 99.8037 575.486 97.78 572.99 97.78C570.494 97.78 568.47 99.8037 568.47 102.3C568.47 104.796 570.494 106.82 572.99 106.82Z" fill="#133F6E"/>
<path d="M395.55 105.48C397.444 105.48 398.98 103.944 398.98 102.05C398.98 100.156 397.444 98.62 395.55 98.62C393.656 98.62 392.12 100.156 392.12 102.05C392.12 103.944 393.656 105.48 395.55 105.48Z" fill="#133F6E"/>
<path d="M549.86 105.5C551.754 105.5 553.29 103.964 553.29 102.07C553.29 100.176 551.754 98.64 549.86 98.64C547.966 98.64 546.43 100.176 546.43 102.07C546.43 103.964 547.966 105.5 549.86 105.5Z" fill="#133F6E"/>
<path d="M420.93 106.04C422.819 106.04 424.35 104.509 424.35 102.62C424.35 100.731 422.819 99.2 420.93 99.2C419.041 99.2 417.51 100.731 417.51 102.62C417.51 104.509 419.041 106.04 420.93 106.04Z" fill="#133F6E"/>
<path d="M446.71 106.11C448.599 106.11 450.13 104.579 450.13 102.69C450.13 100.801 448.599 99.27 446.71 99.27C444.821 99.27 443.29 100.801 443.29 102.69C443.29 104.579 444.821 106.11 446.71 106.11Z" fill="#133F6E"/>
<path d="M498.3 106.13C500.189 106.13 501.72 104.599 501.72 102.71C501.72 100.821 500.189 99.29 498.3 99.29C496.411 99.29 494.88 100.821 494.88 102.71C494.88 104.599 496.411 106.13 498.3 106.13Z" fill="#133F6E"/>
<path d="M524.1 106.04C525.994 106.04 527.53 104.504 527.53 102.61C527.53 100.716 525.994 99.18 524.1 99.18C522.206 99.18 520.67 100.716 520.67 102.61C520.67 104.504 522.206 106.04 524.1 106.04Z" fill="#133F6E"/>
<path d="M472.54 106.72C474.429 106.72 475.96 105.189 475.96 103.3C475.96 101.411 474.429 99.88 472.54 99.88C470.651 99.88 469.12 101.411 469.12 103.3C469.12 105.189 470.651 106.72 472.54 106.72Z" fill="#133F6E"/>
<path d="M382.3 116.05C385.995 116.05 388.99 113.055 388.99 109.36C388.99 105.665 385.995 102.67 382.3 102.67C378.605 102.67 375.61 105.665 375.61 109.36C375.61 113.055 378.605 116.05 382.3 116.05Z" fill="#133F6E"/>
<path d="M562.76 116.05C566.455 116.05 569.45 113.055 569.45 109.36C569.45 105.665 566.455 102.67 562.76 102.67C559.065 102.67 556.07 105.665 556.07 109.36C556.07 113.055 559.065 116.05 562.76 116.05Z" fill="#133F6E"/>
<path d="M408.08 112.79C409.974 112.79 411.51 111.254 411.51 109.36C411.51 107.466 409.974 105.93 408.08 105.93C406.186 105.93 404.65 107.466 404.65 109.36C404.65 111.254 406.186 112.79 408.08 112.79Z" fill="#133F6E"/>
<path d="M433.83 112.87C435.719 112.87 437.25 111.339 437.25 109.45C437.25 107.561 435.719 106.03 433.83 106.03C431.941 106.03 430.41 107.561 430.41 109.45C430.41 111.339 431.941 112.87 433.83 112.87Z" fill="#133F6E"/>
<path d="M511.18 112.88C513.069 112.88 514.6 111.349 514.6 109.46C514.6 107.571 513.069 106.04 511.18 106.04C509.291 106.04 507.76 107.571 507.76 109.46C507.76 111.349 509.291 112.88 511.18 112.88Z" fill="#133F6E"/>
<path d="M536.95 112.78C538.839 112.78 540.37 111.249 540.37 109.36C540.37 107.471 538.839 105.94 536.95 105.94C535.061 105.94 533.53 107.471 533.53 109.36C533.53 111.249 535.061 112.78 536.95 112.78Z" fill="#133F6E"/>
<path d="M459.62 113.26C461.514 113.26 463.05 111.724 463.05 109.83C463.05 107.936 461.514 106.4 459.62 106.4C457.726 106.4 456.19 107.936 456.19 109.83C456.19 111.724 457.726 113.26 459.62 113.26Z" fill="#133F6E"/>
<path d="M485.4 113.25C487.294 113.25 488.83 111.714 488.83 109.82C488.83 107.926 487.294 106.39 485.4 106.39C483.506 106.39 481.97 107.926 481.97 109.82C481.97 111.714 483.506 113.25 485.4 113.25Z" fill="#133F6E"/>
<path d="M395.55 122.22C399.239 122.22 402.23 119.229 402.23 115.54C402.23 111.851 399.239 108.86 395.55 108.86C391.861 108.86 388.87 111.851 388.87 115.54C388.87 119.229 391.861 122.22 395.55 122.22Z" fill="#133F6E"/>
<path d="M549.86 122.22C553.555 122.22 556.55 119.225 556.55 115.53C556.55 111.835 553.555 108.84 549.86 108.84C546.165 108.84 543.17 111.835 543.17 115.53C543.17 119.225 546.165 122.22 549.86 122.22Z" fill="#133F6E"/>
<path d="M420.93 119.53C422.819 119.53 424.35 117.999 424.35 116.11C424.35 114.221 422.819 112.69 420.93 112.69C419.041 112.69 417.51 114.221 417.51 116.11C417.51 117.999 419.041 119.53 420.93 119.53Z" fill="#133F6E"/>
<path d="M446.72 119.61C448.609 119.61 450.14 118.079 450.14 116.19C450.14 114.301 448.609 112.77 446.72 112.77C444.831 112.77 443.3 114.301 443.3 116.19C443.3 118.079 444.831 119.61 446.72 119.61Z" fill="#133F6E"/>
<path d="M498.32 119.6C500.203 119.6 501.73 118.073 501.73 116.19C501.73 114.307 500.203 112.78 498.32 112.78C496.437 112.78 494.91 114.307 494.91 116.19C494.91 118.073 496.437 119.6 498.32 119.6Z" fill="#133F6E"/>
<path d="M524.09 119.52C525.979 119.52 527.51 117.989 527.51 116.1C527.51 114.211 525.979 112.68 524.09 112.68C522.201 112.68 520.67 114.211 520.67 116.1C520.67 117.989 522.201 119.52 524.09 119.52Z" fill="#133F6E"/>
<path d="M472.55 120.19C474.444 120.19 475.98 118.654 475.98 116.76C475.98 114.866 474.444 113.33 472.55 113.33C470.656 113.33 469.12 114.866 469.12 116.76C469.12 118.654 470.656 120.19 472.55 120.19Z" fill="#133F6E"/>
<path d="M370.32 120.38C371.916 120.38 373.21 119.086 373.21 117.49C373.21 115.894 371.916 114.6 370.32 114.6C368.724 114.6 367.43 115.894 367.43 117.49C367.43 119.086 368.724 120.38 370.32 120.38Z" fill="#133F6E"/>
<path d="M574.79 120.38C576.381 120.38 577.67 119.091 577.67 117.5C577.67 115.909 576.381 114.62 574.79 114.62C573.199 114.62 571.91 115.909 571.91 117.5C571.91 119.091 573.199 120.38 574.79 120.38Z" fill="#133F6E"/>
<path d="M408.08 129.53C411.775 129.53 414.77 126.535 414.77 122.84C414.77 119.145 411.775 116.15 408.08 116.15C404.385 116.15 401.39 119.145 401.39 122.84C401.39 126.535 404.385 129.53 408.08 129.53Z" fill="#133F6E"/>
<path d="M536.96 129.54C540.655 129.54 543.65 126.545 543.65 122.85C543.65 119.155 540.655 116.16 536.96 116.16C533.265 116.16 530.27 119.155 530.27 122.85C530.27 126.545 533.265 129.54 536.96 129.54Z" fill="#133F6E"/>
<path d="M382.28 129.55C385.378 129.55 387.89 127.038 387.89 123.94C387.89 120.842 385.378 118.33 382.28 118.33C379.182 118.33 376.67 120.842 376.67 123.94C376.67 127.038 379.182 129.55 382.28 129.55Z" fill="#133F6E"/>
<path d="M562.75 129.54C565.837 129.54 568.34 127.037 568.34 123.95C568.34 120.863 565.837 118.36 562.75 118.36C559.663 118.36 557.16 120.863 557.16 123.95C557.16 127.037 559.663 129.54 562.75 129.54Z" fill="#133F6E"/>
<path d="M433.86 126.35C435.754 126.35 437.29 124.814 437.29 122.92C437.29 121.026 435.754 119.49 433.86 119.49C431.966 119.49 430.43 121.026 430.43 122.92C430.43 124.814 431.966 126.35 433.86 126.35Z" fill="#133F6E"/>
<path d="M511.18 126.36C513.069 126.36 514.6 124.829 514.6 122.94C514.6 121.051 513.069 119.52 511.18 119.52C509.291 119.52 507.76 121.051 507.76 122.94C507.76 124.829 509.291 126.36 511.18 126.36Z" fill="#133F6E"/>
<path d="M459.63 126.71C461.513 126.71 463.04 125.183 463.04 123.3C463.04 121.417 461.513 119.89 459.63 119.89C457.747 119.89 456.22 121.417 456.22 123.3C456.22 125.183 457.747 126.71 459.63 126.71Z" fill="#133F6E"/>
<path d="M485.41 126.73C487.299 126.73 488.83 125.199 488.83 123.31C488.83 121.421 487.299 119.89 485.41 119.89C483.521 119.89 481.99 121.421 481.99 123.31C481.99 125.199 483.521 126.73 485.41 126.73Z" fill="#133F6E"/>
<path d="M420.95 136.28C424.645 136.28 427.64 133.285 427.64 129.59C427.64 125.895 424.645 122.9 420.95 122.9C417.255 122.9 414.26 125.895 414.26 129.59C414.26 133.285 417.255 136.28 420.95 136.28Z" fill="#133F6E"/>
<path d="M524.09 136.27C527.785 136.27 530.78 133.275 530.78 129.58C530.78 125.885 527.785 122.89 524.09 122.89C520.395 122.89 517.4 125.885 517.4 129.58C517.4 133.275 520.395 136.27 524.09 136.27Z" fill="#133F6E"/>
<path d="M395.55 136.25C398.947 136.25 401.7 133.497 401.7 130.1C401.7 126.703 398.947 123.95 395.55 123.95C392.153 123.95 389.4 126.703 389.4 130.1C389.4 133.497 392.153 136.25 395.55 136.25Z" fill="#133F6E"/>
<path d="M549.87 136.24C553.261 136.24 556.01 133.491 556.01 130.1C556.01 126.709 553.261 123.96 549.87 123.96C546.479 123.96 543.73 126.709 543.73 130.1C543.73 133.491 546.479 136.24 549.87 136.24Z" fill="#133F6E"/>
<path d="M446.72 133.1C448.609 133.1 450.14 131.569 450.14 129.68C450.14 127.791 448.609 126.26 446.72 126.26C444.831 126.26 443.3 127.791 443.3 129.68C443.3 131.569 444.831 133.1 446.72 133.1Z" fill="#133F6E"/>
<path d="M498.31 133.11C500.199 133.11 501.73 131.579 501.73 129.69C501.73 127.801 500.199 126.27 498.31 126.27C496.421 126.27 494.89 127.801 494.89 129.69C494.89 131.579 496.421 133.11 498.31 133.11Z" fill="#133F6E"/>
<path d="M472.55 133.63C474.439 133.63 475.97 132.099 475.97 130.21C475.97 128.321 474.439 126.79 472.55 126.79C470.661 126.79 469.13 128.321 469.13 130.21C469.13 132.099 470.661 133.63 472.55 133.63Z" fill="#133F6E"/>
<path d="M370.33 134.97C371.926 134.97 373.22 133.676 373.22 132.08C373.22 130.484 371.926 129.19 370.33 129.19C368.734 129.19 367.44 130.484 367.44 132.08C367.44 133.676 368.734 134.97 370.33 134.97Z" fill="#133F6E"/>
<path d="M574.77 134.97C576.366 134.97 577.66 133.676 577.66 132.08C577.66 130.484 576.366 129.19 574.77 129.19C573.174 129.19 571.88 130.484 571.88 132.08C571.88 133.676 573.174 134.97 574.77 134.97Z" fill="#133F6E"/>
<path d="M433.84 143.09C437.529 143.09 440.52 140.099 440.52 136.41C440.52 132.721 437.529 129.73 433.84 129.73C430.151 129.73 427.16 132.721 427.16 136.41C427.16 140.099 430.151 143.09 433.84 143.09Z" fill="#133F6E"/>
<path d="M511.18 143.1C514.875 143.1 517.87 140.105 517.87 136.41C517.87 132.715 514.875 129.72 511.18 129.72C507.485 129.72 504.49 132.715 504.49 136.41C504.49 140.105 507.485 143.1 511.18 143.1Z" fill="#133F6E"/>
<path d="M408.08 143.56C411.476 143.56 414.23 140.807 414.23 137.41C414.23 134.013 411.476 131.26 408.08 131.26C404.683 131.26 401.93 134.013 401.93 137.41C401.93 140.807 404.683 143.56 408.08 143.56Z" fill="#133F6E"/>
<path d="M536.96 143.55C540.357 143.55 543.11 140.797 543.11 137.4C543.11 134.003 540.357 131.25 536.96 131.25C533.564 131.25 530.81 134.003 530.81 137.4C530.81 140.797 533.564 143.55 536.96 143.55Z" fill="#133F6E"/>
<path d="M459.63 140.19C461.513 140.19 463.04 138.663 463.04 136.78C463.04 134.897 461.513 133.37 459.63 133.37C457.747 133.37 456.22 134.897 456.22 136.78C456.22 138.663 457.747 140.19 459.63 140.19Z" fill="#133F6E"/>
<path d="M485.41 140.21C487.299 140.21 488.83 138.679 488.83 136.79C488.83 134.901 487.299 133.37 485.41 133.37C483.521 133.37 481.99 134.901 481.99 136.79C481.99 138.679 483.521 140.21 485.41 140.21Z" fill="#133F6E"/>
<path d="M382.31 141.93C384.204 141.93 385.74 140.394 385.74 138.5C385.74 136.606 384.204 135.07 382.31 135.07C380.416 135.07 378.88 136.606 378.88 138.5C378.88 140.394 380.416 141.93 382.31 141.93Z" fill="#133F6E"/>
<path d="M562.76 141.98C564.671 141.98 566.22 140.431 566.22 138.52C566.22 136.609 564.671 135.06 562.76 135.06C560.849 135.06 559.3 136.609 559.3 138.52C559.3 140.431 560.849 141.98 562.76 141.98Z" fill="#133F6E"/>
<path d="M446.73 149.86C450.425 149.86 453.42 146.865 453.42 143.17C453.42 139.475 450.425 136.48 446.73 136.48C443.035 136.48 440.04 139.475 440.04 143.17C440.04 146.865 443.035 149.86 446.73 149.86Z" fill="#133F6E"/>
<path d="M498.31 149.84C502.005 149.84 505 146.845 505 143.15C505 139.455 502.005 136.46 498.31 136.46C494.615 136.46 491.62 139.455 491.62 143.15C491.62 146.845 494.615 149.84 498.31 149.84Z" fill="#133F6E"/>
<path d="M420.94 150.3C424.337 150.3 427.09 147.547 427.09 144.15C427.09 140.753 424.337 138 420.94 138C417.543 138 414.79 140.753 414.79 144.15C414.79 147.547 417.543 150.3 420.94 150.3Z" fill="#133F6E"/>
<path d="M524.09 150.29C527.481 150.29 530.23 147.541 530.23 144.15C530.23 140.759 527.481 138.01 524.09 138.01C520.699 138.01 517.95 140.759 517.95 144.15C517.95 147.541 520.699 150.29 524.09 150.29Z" fill="#133F6E"/>
<path d="M395.53 150.26C398.617 150.26 401.12 147.757 401.12 144.67C401.12 141.583 398.617 139.08 395.53 139.08C392.443 139.08 389.94 141.583 389.94 144.67C389.94 147.757 392.443 150.26 395.53 150.26Z" fill="#133F6E"/>
<path d="M549.87 150.27C552.968 150.27 555.48 147.758 555.48 144.66C555.48 141.562 552.968 139.05 549.87 139.05C546.772 139.05 544.26 141.562 544.26 144.66C544.26 147.758 546.772 150.27 549.87 150.27Z" fill="#133F6E"/>
<path d="M472.53 147.12C474.424 147.12 475.96 145.584 475.96 143.69C475.96 141.796 474.424 140.26 472.53 140.26C470.636 140.26 469.1 141.796 469.1 143.69C469.1 145.584 470.636 147.12 472.53 147.12Z" fill="#133F6E"/>
<path d="M459.63 156.93C463.325 156.93 466.32 153.935 466.32 150.24C466.32 146.545 463.325 143.55 459.63 143.55C455.935 143.55 452.94 146.545 452.94 150.24C452.94 153.935 455.935 156.93 459.63 156.93Z" fill="#133F6E"/>
<path d="M485.4 156.94C489.095 156.94 492.09 153.945 492.09 150.25C492.09 146.555 489.095 143.56 485.4 143.56C481.705 143.56 478.71 146.555 478.71 150.25C478.71 153.945 481.705 156.94 485.4 156.94Z" fill="#133F6E"/>
<path d="M370.34 149.54C371.936 149.54 373.23 148.246 373.23 146.65C373.23 145.054 371.936 143.76 370.34 143.76C368.744 143.76 367.45 145.054 367.45 146.65C367.45 148.246 368.744 149.54 370.34 149.54Z" fill="#133F6E"/>
<path d="M574.78 149.52C576.376 149.52 577.67 148.226 577.67 146.63C577.67 145.034 576.376 143.74 574.78 143.74C573.184 143.74 571.89 145.034 571.89 146.63C571.89 148.226 573.184 149.52 574.78 149.52Z" fill="#133F6E"/>
<path d="M433.85 157.13C437.241 157.13 439.99 154.381 439.99 150.99C439.99 147.599 437.241 144.85 433.85 144.85C430.459 144.85 427.71 147.599 427.71 150.99C427.71 154.381 430.459 157.13 433.85 157.13Z" fill="#133F6E"/>
<path d="M511.19 157.13C514.576 157.13 517.32 154.385 517.32 151C517.32 147.614 514.576 144.87 511.19 144.87C507.805 144.87 505.06 147.614 505.06 151C505.06 154.385 507.805 157.13 511.19 157.13Z" fill="#133F6E"/>
<path d="M408.04 157.58C411.133 157.58 413.64 155.073 413.64 151.98C413.64 148.887 411.133 146.38 408.04 146.38C404.947 146.38 402.44 148.887 402.44 151.98C402.44 155.073 404.947 157.58 408.04 157.58Z" fill="#133F6E"/>
<path d="M536.99 157.6C540.083 157.6 542.59 155.093 542.59 152C542.59 148.907 540.083 146.4 536.99 146.4C533.897 146.4 531.39 148.907 531.39 152C531.39 155.093 533.897 157.6 536.99 157.6Z" fill="#133F6E"/>
<path d="M382.3 156.51C384.194 156.51 385.73 154.974 385.73 153.08C385.73 151.186 384.194 149.65 382.3 149.65C380.406 149.65 378.87 151.186 378.87 153.08C378.87 154.974 380.406 156.51 382.3 156.51Z" fill="#133F6E"/>
<path d="M562.76 156.5C564.654 156.5 566.19 154.964 566.19 153.07C566.19 151.176 564.654 149.64 562.76 149.64C560.866 149.64 559.33 151.176 559.33 153.07C559.33 154.964 560.866 156.5 562.76 156.5Z" fill="#133F6E"/>
<path d="M472.53 163.86C476.219 163.86 479.21 160.869 479.21 157.18C479.21 153.491 476.219 150.5 472.53 150.5C468.841 150.5 465.85 153.491 465.85 157.18C465.85 160.869 468.841 163.86 472.53 163.86Z" fill="#133F6E"/>
<path d="M446.74 163.87C450.125 163.87 452.87 161.125 452.87 157.74C452.87 154.354 450.125 151.61 446.74 151.61C443.354 151.61 440.61 154.354 440.61 157.74C440.61 161.125 443.354 163.87 446.74 163.87Z" fill="#133F6E"/>
<path d="M498.3 163.87C501.686 163.87 504.43 161.125 504.43 157.74C504.43 154.354 501.686 151.61 498.3 151.61C494.915 151.61 492.17 154.354 492.17 157.74C492.17 161.125 494.915 163.87 498.3 163.87Z" fill="#133F6E"/>
<path d="M420.97 164.33C424.057 164.33 426.56 161.827 426.56 158.74C426.56 155.653 424.057 153.15 420.97 153.15C417.883 153.15 415.38 155.653 415.38 158.74C415.38 161.827 417.883 164.33 420.97 164.33Z" fill="#133F6E"/>
<path d="M524.07 164.32C527.163 164.32 529.67 161.813 529.67 158.72C529.67 155.627 527.163 153.12 524.07 153.12C520.977 153.12 518.47 155.627 518.47 158.72C518.47 161.813 520.977 164.32 524.07 164.32Z" fill="#133F6E"/>
<path d="M395.56 162.64C397.454 162.64 398.99 161.104 398.99 159.21C398.99 157.316 397.454 155.78 395.56 155.78C393.666 155.78 392.13 157.316 392.13 159.21C392.13 161.104 393.666 162.64 395.56 162.64Z" fill="#133F6E"/>
<path d="M549.85 162.63C551.739 162.63 553.27 161.099 553.27 159.21C553.27 157.321 551.739 155.79 549.85 155.79C547.961 155.79 546.43 157.321 546.43 159.21C546.43 161.099 547.961 162.63 549.85 162.63Z" fill="#133F6E"/>
<path d="M370.33 164.08C371.926 164.08 373.22 162.786 373.22 161.19C373.22 159.594 371.926 158.3 370.33 158.3C368.734 158.3 367.44 159.594 367.44 161.19C367.44 162.786 368.734 164.08 370.33 164.08Z" fill="#133F6E"/>
<path d="M574.78 164.07C576.376 164.07 577.67 162.776 577.67 161.18C577.67 159.584 576.376 158.29 574.78 158.29C573.184 158.29 571.89 159.584 571.89 161.18C571.89 162.776 573.184 164.07 574.78 164.07Z" fill="#133F6E"/>
<path d="M459.62 170.98C463.022 170.98 465.78 168.222 465.78 164.82C465.78 161.418 463.022 158.66 459.62 158.66C456.218 158.66 453.46 161.418 453.46 164.82C453.46 168.222 456.218 170.98 459.62 170.98Z" fill="#133F6E"/>
<path d="M485.41 170.97C488.807 170.97 491.56 168.217 491.56 164.82C491.56 161.423 488.807 158.67 485.41 158.67C482.013 158.67 479.26 161.423 479.26 164.82C479.26 168.217 482.013 170.97 485.41 170.97Z" fill="#133F6E"/>
<path d="M433.84 171.16C436.933 171.16 439.44 168.653 439.44 165.56C439.44 162.467 436.933 159.96 433.84 159.96C430.747 159.96 428.24 162.467 428.24 165.56C428.24 168.653 430.747 171.16 433.84 171.16Z" fill="#133F6E"/>
<path d="M511.2 171.15C514.287 171.15 516.79 168.647 516.79 165.56C516.79 162.473 514.287 159.97 511.2 159.97C508.113 159.97 505.61 162.473 505.61 165.56C505.61 168.647 508.113 171.15 511.2 171.15Z" fill="#133F6E"/>
<path d="M408.05 171.61C410.845 171.61 413.11 169.345 413.11 166.55C413.11 163.755 410.845 161.49 408.05 161.49C405.255 161.49 402.99 163.755 402.99 166.55C402.99 169.345 405.255 171.61 408.05 171.61Z" fill="#133F6E"/>
<path d="M536.98 171.61C539.78 171.61 542.05 169.34 542.05 166.54C542.05 163.74 539.78 161.47 536.98 161.47C534.18 161.47 531.91 163.74 531.91 166.54C531.91 169.34 534.18 171.61 536.98 171.61Z" fill="#133F6E"/>
<path d="M382.29 171.05C384.173 171.05 385.7 169.523 385.7 167.64C385.7 165.757 384.173 164.23 382.29 164.23C380.407 164.23 378.88 165.757 378.88 167.64C378.88 169.523 380.407 171.05 382.29 171.05Z" fill="#133F6E"/>
<path d="M562.74 171.03C564.623 171.03 566.15 169.503 566.15 167.62C566.15 165.737 564.623 164.21 562.74 164.21C560.857 164.21 559.33 165.737 559.33 167.62C559.33 169.503 560.857 171.03 562.74 171.03Z" fill="#133F6E"/>
<path d="M472.53 178.45C476.225 178.45 479.22 175.455 479.22 171.76C479.22 168.065 476.225 165.07 472.53 165.07C468.835 165.07 465.84 168.065 465.84 171.76C465.84 175.455 468.835 178.45 472.53 178.45Z" fill="#133F6E"/>
<path d="M446.74 177.9C449.833 177.9 452.34 175.393 452.34 172.3C452.34 169.207 449.833 166.7 446.74 166.7C443.647 166.7 441.14 169.207 441.14 172.3C441.14 175.393 443.647 177.9 446.74 177.9Z" fill="#133F6E"/>
<path d="M498.3 177.9C501.393 177.9 503.9 175.393 503.9 172.3C503.9 169.207 501.393 166.7 498.3 166.7C495.207 166.7 492.7 169.207 492.7 172.3C492.7 175.393 495.207 177.9 498.3 177.9Z" fill="#133F6E"/>
<path d="M420.97 178.35C423.765 178.35 426.03 176.085 426.03 173.29C426.03 170.495 423.765 168.23 420.97 168.23C418.175 168.23 415.91 170.495 415.91 173.29C415.91 176.085 418.175 178.35 420.97 178.35Z" fill="#133F6E"/>
<path d="M524.06 178.35C526.855 178.35 529.12 176.085 529.12 173.29C529.12 170.495 526.855 168.23 524.06 168.23C521.265 168.23 519 170.495 519 173.29C519 176.085 521.265 178.35 524.06 178.35Z" fill="#133F6E"/>
<path d="M395.56 177.23C397.449 177.23 398.98 175.699 398.98 173.81C398.98 171.921 397.449 170.39 395.56 170.39C393.671 170.39 392.14 171.921 392.14 173.81C392.14 175.699 393.671 177.23 395.56 177.23Z" fill="#133F6E"/>
<path d="M549.85 177.26C551.744 177.26 553.28 175.724 553.28 173.83C553.28 171.936 551.744 170.4 549.85 170.4C547.956 170.4 546.42 171.936 546.42 173.83C546.42 175.724 547.956 177.26 549.85 177.26Z" fill="#133F6E"/>
<path d="M370.32 178.64C371.905 178.64 373.19 177.355 373.19 175.77C373.19 174.185 371.905 172.9 370.32 172.9C368.735 172.9 367.45 174.185 367.45 175.77C367.45 177.355 368.735 178.64 370.32 178.64Z" fill="#133F6E"/>
<path d="M574.77 178.63C576.355 178.63 577.64 177.345 577.64 175.76C577.64 174.175 576.355 172.89 574.77 172.89C573.185 172.89 571.9 174.175 571.9 175.76C571.9 177.345 573.185 178.63 574.77 178.63Z" fill="#133F6E"/>
<path d="M459.63 185.54C463.027 185.54 465.78 182.787 465.78 179.39C465.78 175.993 463.027 173.24 459.63 173.24C456.233 173.24 453.48 175.993 453.48 179.39C453.48 182.787 456.233 185.54 459.63 185.54Z" fill="#133F6E"/>
<path d="M485.41 185.54C488.807 185.54 491.56 182.787 491.56 179.39C491.56 175.993 488.807 173.24 485.41 173.24C482.013 173.24 479.26 175.993 479.26 179.39C479.26 182.787 482.013 185.54 485.41 185.54Z" fill="#133F6E"/>
<path d="M433.85 185.74C436.948 185.74 439.46 183.228 439.46 180.13C439.46 177.032 436.948 174.52 433.85 174.52C430.752 174.52 428.24 177.032 428.24 180.13C428.24 183.228 430.752 185.74 433.85 185.74Z" fill="#133F6E"/>
<path d="M511.19 185.74C514.283 185.74 516.79 183.233 516.79 180.14C516.79 177.047 514.283 174.54 511.19 174.54C508.097 174.54 505.59 177.047 505.59 180.14C505.59 183.233 508.097 185.74 511.19 185.74Z" fill="#133F6E"/>
<path d="M408.09 184.54C409.984 184.54 411.52 183.004 411.52 181.11C411.52 179.216 409.984 177.68 408.09 177.68C406.196 177.68 404.66 179.216 404.66 181.11C404.66 183.004 406.196 184.54 408.09 184.54Z" fill="#133F6E"/>
<path d="M536.94 184.54C538.829 184.54 540.36 183.009 540.36 181.12C540.36 179.231 538.829 177.7 536.94 177.7C535.051 177.7 533.52 179.231 533.52 181.12C533.52 183.009 535.051 184.54 536.94 184.54Z" fill="#133F6E"/>
<path d="M382.31 185.62C384.199 185.62 385.73 184.089 385.73 182.2C385.73 180.311 384.199 178.78 382.31 178.78C380.421 178.78 378.89 180.311 378.89 182.2C378.89 184.089 380.421 185.62 382.31 185.62Z" fill="#133F6E"/>
<path d="M562.73 185.63C564.624 185.63 566.16 184.094 566.16 182.2C566.16 180.306 564.624 178.77 562.73 178.77C560.836 178.77 559.3 180.306 559.3 182.2C559.3 184.094 560.836 185.63 562.73 185.63Z" fill="#133F6E"/>
<path d="M472.53 193.03C476.225 193.03 479.22 190.035 479.22 186.34C479.22 182.645 476.225 179.65 472.53 179.65C468.835 179.65 465.84 182.645 465.84 186.34C465.84 190.035 468.835 193.03 472.53 193.03Z" fill="#133F6E"/>
<path d="M446.72 192.49C449.818 192.49 452.33 189.978 452.33 186.88C452.33 183.782 449.818 181.27 446.72 181.27C443.622 181.27 441.11 183.782 441.11 186.88C441.11 189.978 443.622 192.49 446.72 192.49Z" fill="#133F6E"/>
<path d="M498.29 192.49C501.388 192.49 503.9 189.978 503.9 186.88C503.9 183.782 501.388 181.27 498.29 181.27C495.192 181.27 492.68 183.782 492.68 186.88C492.68 189.978 495.192 192.49 498.29 192.49Z" fill="#133F6E"/>
<path d="M420.95 192.9C423.739 192.9 426 190.639 426 187.85C426 185.061 423.739 182.8 420.95 182.8C418.161 182.8 415.9 185.061 415.9 187.85C415.9 190.639 418.161 192.9 420.95 192.9Z" fill="#133F6E"/>
<path d="M524.07 192.9C526.854 192.9 529.11 190.644 529.11 187.86C529.11 185.076 526.854 182.82 524.07 182.82C521.287 182.82 519.03 185.076 519.03 187.86C519.03 190.644 521.287 192.9 524.07 192.9Z" fill="#133F6E"/>
<path d="M395.56 191.78C397.449 191.78 398.98 190.249 398.98 188.36C398.98 186.471 397.449 184.94 395.56 184.94C393.671 184.94 392.14 186.471 392.14 188.36C392.14 190.249 393.671 191.78 395.56 191.78Z" fill="#133F6E"/>
<path d="M549.87 191.8C551.764 191.8 553.3 190.264 553.3 188.37C553.3 186.476 551.764 184.94 549.87 184.94C547.976 184.94 546.44 186.476 546.44 188.37C546.44 190.264 547.976 191.8 549.87 191.8Z" fill="#133F6E"/>
<path d="M370.33 193.21C371.921 193.21 373.21 191.921 373.21 190.33C373.21 188.739 371.921 187.45 370.33 187.45C368.739 187.45 367.45 188.739 367.45 190.33C367.45 191.921 368.739 193.21 370.33 193.21Z" fill="#133F6E"/>
<path d="M574.78 193.22C576.371 193.22 577.66 191.931 577.66 190.34C577.66 188.749 576.371 187.46 574.78 187.46C573.189 187.46 571.9 188.749 571.9 190.34C571.9 191.931 573.189 193.22 574.78 193.22Z" fill="#133F6E"/>
<path d="M459.63 200.11C463.032 200.11 465.79 197.352 465.79 193.95C465.79 190.548 463.032 187.79 459.63 187.79C456.228 187.79 453.47 190.548 453.47 193.95C453.47 197.352 456.228 200.11 459.63 200.11Z" fill="#133F6E"/>
<path d="M485.41 200.09C488.807 200.09 491.56 197.337 491.56 193.94C491.56 190.543 488.807 187.79 485.41 187.79C482.013 187.79 479.26 190.543 479.26 193.94C479.26 197.337 482.013 200.09 485.41 200.09Z" fill="#133F6E"/>
<path d="M433.84 199.76C436.629 199.76 438.89 197.499 438.89 194.71C438.89 191.921 436.629 189.66 433.84 189.66C431.051 189.66 428.79 191.921 428.79 194.71C428.79 197.499 431.051 199.76 433.84 199.76Z" fill="#133F6E"/>
<path d="M511.2 199.78C514 199.78 516.27 197.51 516.27 194.71C516.27 191.91 514 189.64 511.2 189.64C508.4 189.64 506.13 191.91 506.13 194.71C506.13 197.51 508.4 199.78 511.2 199.78Z" fill="#133F6E"/>
<path d="M408.07 199.1C409.959 199.1 411.49 197.569 411.49 195.68C411.49 193.791 409.959 192.26 408.07 192.26C406.181 192.26 404.65 193.791 404.65 195.68C404.65 197.569 406.181 199.1 408.07 199.1Z" fill="#133F6E"/>
<path d="M536.94 199.09C538.829 199.09 540.36 197.559 540.36 195.67C540.36 193.781 538.829 192.25 536.94 192.25C535.051 192.25 533.52 193.781 533.52 195.67C533.52 197.559 535.051 199.09 536.94 199.09Z" fill="#133F6E"/>
<path d="M382.31 200.21C384.199 200.21 385.73 198.679 385.73 196.79C385.73 194.901 384.199 193.37 382.31 193.37C380.421 193.37 378.89 194.901 378.89 196.79C378.89 198.679 380.421 200.21 382.31 200.21Z" fill="#133F6E"/>
<path d="M562.77 200.22C564.659 200.22 566.19 198.689 566.19 196.8C566.19 194.911 564.659 193.38 562.77 193.38C560.881 193.38 559.35 194.911 559.35 196.8C559.35 198.689 560.881 200.22 562.77 200.22Z" fill="#133F6E"/>
<path d="M472.54 207.59C476.235 207.59 479.23 204.595 479.23 200.9C479.23 197.205 476.235 194.21 472.54 194.21C468.845 194.21 465.85 197.205 465.85 200.9C465.85 204.595 468.845 207.59 472.54 207.59Z" fill="#133F6E"/>
<path d="M446.74 207.06C449.827 207.06 452.33 204.557 452.33 201.47C452.33 198.383 449.827 195.88 446.74 195.88C443.653 195.88 441.15 198.383 441.15 201.47C441.15 204.557 443.653 207.06 446.74 207.06Z" fill="#133F6E"/>
<path d="M498.29 207.07C501.388 207.07 503.9 204.558 503.9 201.46C503.9 198.362 501.388 195.85 498.29 195.85C495.192 195.85 492.68 198.362 492.68 201.46C492.68 204.558 495.192 207.07 498.29 207.07Z" fill="#133F6E"/>
<path d="M420.94 205.85C422.829 205.85 424.36 204.319 424.36 202.43C424.36 200.541 422.829 199.01 420.94 199.01C419.051 199.01 417.52 200.541 417.52 202.43C417.52 204.319 419.051 205.85 420.94 205.85Z" fill="#133F6E"/>
<path d="M524.09 205.85C525.99 205.85 527.53 204.31 527.53 202.41C527.53 200.51 525.99 198.97 524.09 198.97C522.19 198.97 520.65 200.51 520.65 202.41C520.65 204.31 522.19 205.85 524.09 205.85Z" fill="#133F6E"/>
<path d="M395.56 206.36C397.449 206.36 398.98 204.829 398.98 202.94C398.98 201.051 397.449 199.52 395.56 199.52C393.671 199.52 392.14 201.051 392.14 202.94C392.14 204.829 393.671 206.36 395.56 206.36Z" fill="#133F6E"/>
<path d="M549.86 206.34C551.754 206.34 553.29 204.804 553.29 202.91C553.29 201.016 551.754 199.48 549.86 199.48C547.966 199.48 546.43 201.016 546.43 202.91C546.43 204.804 547.966 206.34 549.86 206.34Z" fill="#133F6E"/>
<path d="M370.33 207.8C371.926 207.8 373.22 206.506 373.22 204.91C373.22 203.314 371.926 202.02 370.33 202.02C368.734 202.02 367.44 203.314 367.44 204.91C367.44 206.506 368.734 207.8 370.33 207.8Z" fill="#133F6E"/>
<path d="M574.78 207.8C576.376 207.8 577.67 206.506 577.67 204.91C577.67 203.314 576.376 202.02 574.78 202.02C573.184 202.02 571.89 203.314 571.89 204.91C571.89 206.506 573.184 207.8 574.78 207.8Z" fill="#133F6E"/>
<path d="M459.62 214.69C463.022 214.69 465.78 211.932 465.78 208.53C465.78 205.128 463.022 202.37 459.62 202.37C456.218 202.37 453.46 205.128 453.46 208.53C453.46 211.932 456.218 214.69 459.62 214.69Z" fill="#133F6E"/>
<path d="M485.4 214.67C488.791 214.67 491.54 211.921 491.54 208.53C491.54 205.139 488.791 202.39 485.4 202.39C482.009 202.39 479.26 205.139 479.26 208.53C479.26 211.921 482.009 214.67 485.4 214.67Z" fill="#133F6E"/>
<path d="M433.83 214.34C436.625 214.34 438.89 212.075 438.89 209.28C438.89 206.485 436.625 204.22 433.83 204.22C431.035 204.22 428.77 206.485 428.77 209.28C428.77 212.075 431.035 214.34 433.83 214.34Z" fill="#133F6E"/>
<path d="M511.2 214.33C513.995 214.33 516.26 212.065 516.26 209.27C516.26 206.475 513.995 204.21 511.2 204.21C508.405 204.21 506.14 206.475 506.14 209.27C506.14 212.065 508.405 214.33 511.2 214.33Z" fill="#133F6E"/>
<path d="M408.05 213.7C409.939 213.7 411.47 212.169 411.47 210.28C411.47 208.391 409.939 206.86 408.05 206.86C406.161 206.86 404.63 208.391 404.63 210.28C404.63 212.169 406.161 213.7 408.05 213.7Z" fill="#133F6E"/>
<path d="M536.93 213.7C538.819 213.7 540.35 212.169 540.35 210.28C540.35 208.391 538.819 206.86 536.93 206.86C535.041 206.86 533.51 208.391 533.51 210.28C533.51 212.169 535.041 213.7 536.93 213.7Z" fill="#133F6E"/>
<path d="M382.3 214.77C384.189 214.77 385.72 213.239 385.72 211.35C385.72 209.461 384.189 207.93 382.3 207.93C380.411 207.93 378.88 209.461 378.88 211.35C378.88 213.239 380.411 214.77 382.3 214.77Z" fill="#133F6E"/>
<path d="M562.74 214.76C564.623 214.76 566.15 213.233 566.15 211.35C566.15 209.467 564.623 207.94 562.74 207.94C560.857 207.94 559.33 209.467 559.33 211.35C559.33 213.233 560.857 214.76 562.74 214.76Z" fill="#133F6E"/>
<path d="M472.52 222.15C476.215 222.15 479.21 219.155 479.21 215.46C479.21 211.765 476.215 208.77 472.52 208.77C468.825 208.77 465.83 211.765 465.83 215.46C465.83 219.155 468.825 222.15 472.52 222.15Z" fill="#133F6E"/>
<path d="M446.74 221.59C449.827 221.59 452.33 219.087 452.33 216C452.33 212.913 449.827 210.41 446.74 210.41C443.653 210.41 441.15 212.913 441.15 216C441.15 219.087 443.653 221.59 446.74 221.59Z" fill="#133F6E"/>
<path d="M498.28 221.6C501.367 221.6 503.87 219.097 503.87 216.01C503.87 212.923 501.367 210.42 498.28 210.42C495.193 210.42 492.69 212.923 492.69 216.01C492.69 219.097 495.193 221.6 498.28 221.6Z" fill="#133F6E"/>
<path d="M420.94 220.42C422.829 220.42 424.36 218.889 424.36 217C424.36 215.111 422.829 213.58 420.94 213.58C419.051 213.58 417.52 215.111 417.52 217C417.52 218.889 419.051 220.42 420.94 220.42Z" fill="#133F6E"/>
<path d="M524.08 220.43C525.974 220.43 527.51 218.894 527.51 217C527.51 215.106 525.974 213.57 524.08 213.57C522.186 213.57 520.65 215.106 520.65 217C520.65 218.894 522.186 220.43 524.08 220.43Z" fill="#133F6E"/>
<path d="M395.56 220.94C397.449 220.94 398.98 219.409 398.98 217.52C398.98 215.631 397.449 214.1 395.56 214.1C393.671 214.1 392.14 215.631 392.14 217.52C392.14 219.409 393.671 220.94 395.56 220.94Z" fill="#133F6E"/>
<path d="M549.87 220.95C551.753 220.95 553.28 219.423 553.28 217.54C553.28 215.657 551.753 214.13 549.87 214.13C547.987 214.13 546.46 215.657 546.46 217.54C546.46 219.423 547.987 220.95 549.87 220.95Z" fill="#133F6E"/>
<path d="M370.32 222.35C371.905 222.35 373.19 221.065 373.19 219.48C373.19 217.895 371.905 216.61 370.32 216.61C368.735 216.61 367.45 217.895 367.45 219.48C367.45 221.065 368.735 222.35 370.32 222.35Z" fill="#133F6E"/>
<path d="M574.79 222.37C576.381 222.37 577.67 221.081 577.67 219.49C577.67 217.899 576.381 216.61 574.79 216.61C573.199 216.61 571.91 217.899 571.91 219.49C571.91 221.081 573.199 222.37 574.79 222.37Z" fill="#133F6E"/>
<path d="M459.63 229.26C463.021 229.26 465.77 226.511 465.77 223.12C465.77 219.729 463.021 216.98 459.63 216.98C456.239 216.98 453.49 219.729 453.49 223.12C453.49 226.511 456.239 229.26 459.63 229.26Z" fill="#133F6E"/>
<path d="M485.4 229.26C488.802 229.26 491.56 226.502 491.56 223.1C491.56 219.698 488.802 216.94 485.4 216.94C481.998 216.94 479.24 219.698 479.24 223.1C479.24 226.502 481.998 229.26 485.4 229.26Z" fill="#133F6E"/>
<path d="M433.86 227.27C435.749 227.27 437.28 225.739 437.28 223.85C437.28 221.961 435.749 220.43 433.86 220.43C431.971 220.43 430.44 221.961 430.44 223.85C430.44 225.739 431.971 227.27 433.86 227.27Z" fill="#133F6E"/>
<path d="M511.15 227.28C513.044 227.28 514.58 225.744 514.58 223.85C514.58 221.956 513.044 220.42 511.15 220.42C509.256 220.42 507.72 221.956 507.72 223.85C507.72 225.744 509.256 227.28 511.15 227.28Z" fill="#133F6E"/>
<path d="M408.08 228.27C409.974 228.27 411.51 226.734 411.51 224.84C411.51 222.946 409.974 221.41 408.08 221.41C406.186 221.41 404.65 222.946 404.65 224.84C404.65 226.734 406.186 228.27 408.08 228.27Z" fill="#133F6E"/>
<path d="M536.95 228.25C538.839 228.25 540.37 226.719 540.37 224.83C540.37 222.941 538.839 221.41 536.95 221.41C535.061 221.41 533.53 222.941 533.53 224.83C533.53 226.719 535.061 228.25 536.95 228.25Z" fill="#133F6E"/>
<path d="M382.3 228.79C383.891 228.79 385.18 227.501 385.18 225.91C385.18 224.319 383.891 223.03 382.3 223.03C380.709 223.03 379.42 224.319 379.42 225.91C379.42 227.501 380.709 228.79 382.3 228.79Z" fill="#133F6E"/>
<path d="M562.73 228.76C564.31 228.76 565.59 227.48 565.59 225.9C565.59 224.32 564.31 223.04 562.73 223.04C561.15 223.04 559.87 224.32 559.87 225.9C559.87 227.48 561.15 228.76 562.73 228.76Z" fill="#133F6E"/>
<path d="M472.54 236.72C476.224 236.72 479.21 233.734 479.21 230.05C479.21 226.366 476.224 223.38 472.54 223.38C468.856 223.38 465.87 226.366 465.87 230.05C465.87 233.734 468.856 236.72 472.54 236.72Z" fill="#133F6E"/>
<path d="M446.74 236.18C449.833 236.18 452.34 233.673 452.34 230.58C452.34 227.487 449.833 224.98 446.74 224.98C443.647 224.98 441.14 227.487 441.14 230.58C441.14 233.673 443.647 236.18 446.74 236.18Z" fill="#133F6E"/>
<path d="M498.3 236.18C501.393 236.18 503.9 233.673 503.9 230.58C503.9 227.487 501.393 224.98 498.3 224.98C495.207 224.98 492.7 227.487 492.7 230.58C492.7 233.673 495.207 236.18 498.3 236.18Z" fill="#133F6E"/>
<path d="M420.93 234.98C422.813 234.98 424.34 233.453 424.34 231.57C424.34 229.687 422.813 228.16 420.93 228.16C419.047 228.16 417.52 229.687 417.52 231.57C417.52 233.453 419.047 234.98 420.93 234.98Z" fill="#133F6E"/>
<path d="M524.09 235.02C525.984 235.02 527.52 233.484 527.52 231.59C527.52 229.696 525.984 228.16 524.09 228.16C522.196 228.16 520.66 229.696 520.66 231.59C520.66 233.484 522.196 235.02 524.09 235.02Z" fill="#133F6E"/>
<path d="M395.54 234.96C397.131 234.96 398.42 233.671 398.42 232.08C398.42 230.489 397.131 229.2 395.54 229.2C393.949 229.2 392.66 230.489 392.66 232.08C392.66 233.671 393.949 234.96 395.54 234.96Z" fill="#133F6E"/>
<path d="M549.85 234.98C551.452 234.98 552.75 233.682 552.75 232.08C552.75 230.478 551.452 229.18 549.85 229.18C548.248 229.18 546.95 230.478 546.95 232.08C546.95 233.682 548.248 234.98 549.85 234.98Z" fill="#133F6E"/>
<path d="M459.63 243.81C463.027 243.81 465.78 241.057 465.78 237.66C465.78 234.263 463.027 231.51 459.63 231.51C456.233 231.51 453.48 234.263 453.48 237.66C453.48 241.057 456.233 243.81 459.63 243.81Z" fill="#133F6E"/>
<path d="M485.41 243.81C488.807 243.81 491.56 241.057 491.56 237.66C491.56 234.263 488.807 231.51 485.41 231.51C482.013 231.51 479.26 234.263 479.26 237.66C479.26 241.057 482.013 243.81 485.41 243.81Z" fill="#133F6E"/>
<path d="M433.86 241.82C435.749 241.82 437.28 240.289 437.28 238.4C437.28 236.511 435.749 234.98 433.86 234.98C431.971 234.98 430.44 236.511 430.44 238.4C430.44 240.289 431.971 241.82 433.86 241.82Z" fill="#133F6E"/>
<path d="M511.17 241.86C513.064 241.86 514.6 240.324 514.6 238.43C514.6 236.536 513.064 235 511.17 235C509.276 235 507.74 236.536 507.74 238.43C507.74 240.324 509.276 241.86 511.17 241.86Z" fill="#133F6E"/>
<path d="M408.08 242.3C409.682 242.3 410.98 241.002 410.98 239.4C410.98 237.798 409.682 236.5 408.08 236.5C406.478 236.5 405.18 237.798 405.18 239.4C405.18 241.002 406.478 242.3 408.08 242.3Z" fill="#133F6E"/>
<path d="M536.98 242.28C538.565 242.28 539.85 240.995 539.85 239.41C539.85 237.825 538.565 236.54 536.98 236.54C535.395 236.54 534.11 237.825 534.11 239.41C534.11 240.995 535.395 242.28 536.98 242.28Z" fill="#133F6E"/>
<path d="M472.53 251.31C476.225 251.31 479.22 248.315 479.22 244.62C479.22 240.925 476.225 237.93 472.53 237.93C468.835 237.93 465.84 240.925 465.84 244.62C465.84 248.315 468.835 251.31 472.53 251.31Z" fill="#133F6E"/>
<path d="M446.72 248.59C448.609 248.59 450.14 247.059 450.14 245.17C450.14 243.281 448.609 241.75 446.72 241.75C444.831 241.75 443.3 243.281 443.3 245.17C443.3 247.059 444.831 248.59 446.72 248.59Z" fill="#133F6E"/>
<path d="M498.32 248.59C500.214 248.59 501.75 247.054 501.75 245.16C501.75 243.266 500.214 241.73 498.32 241.73C496.426 241.73 494.89 243.266 494.89 245.16C494.89 247.054 496.426 248.59 498.32 248.59Z" fill="#133F6E"/>
<path d="M524.07 249.05C525.672 249.05 526.97 247.752 526.97 246.15C526.97 244.548 525.672 243.25 524.07 243.25C522.468 243.25 521.17 244.548 521.17 246.15C521.17 247.752 522.468 249.05 524.07 249.05Z" fill="#133F6E"/>
<path d="M420.94 250.18C422.525 250.18 423.81 248.895 423.81 247.31C423.81 245.725 422.525 244.44 420.94 244.44C419.355 244.44 418.07 245.725 418.07 247.31C418.07 248.895 419.355 250.18 420.94 250.18Z" fill="#133F6E"/>
<path d="M459.62 257.84C462.718 257.84 465.23 255.328 465.23 252.23C465.23 249.132 462.718 246.62 459.62 246.62C456.522 246.62 454.01 249.132 454.01 252.23C454.01 255.328 456.522 257.84 459.62 257.84Z" fill="#133F6E"/>
<path d="M485.41 257.84C488.508 257.84 491.02 255.328 491.02 252.23C491.02 249.132 488.508 246.62 485.41 246.62C482.312 246.62 479.8 249.132 479.8 252.23C479.8 255.328 482.312 257.84 485.41 257.84Z" fill="#133F6E"/>
<path d="M433.85 255.85C435.43 255.85 436.71 254.57 436.71 252.99C436.71 251.41 435.43 250.13 433.85 250.13C432.27 250.13 430.99 251.41 430.99 252.99C430.99 254.57 432.27 255.85 433.85 255.85Z" fill="#133F6E"/>
<path d="M511.19 255.87C512.775 255.87 514.06 254.585 514.06 253C514.06 251.415 512.775 250.13 511.19 250.13C509.605 250.13 508.32 251.415 508.32 253C508.32 254.585 509.605 255.87 511.19 255.87Z" fill="#133F6E"/>
<path d="M472.53 265.87C476.225 265.87 479.22 262.875 479.22 259.18C479.22 255.485 476.225 252.49 472.53 252.49C468.835 252.49 465.84 255.485 465.84 259.18C465.84 262.875 468.835 265.87 472.53 265.87Z" fill="#133F6E"/>
<path d="M446.74 262.61C448.331 262.61 449.62 261.321 449.62 259.73C449.62 258.139 448.331 256.85 446.74 256.85C445.149 256.85 443.86 258.139 443.86 259.73C443.86 261.321 445.149 262.61 446.74 262.61Z" fill="#133F6E"/>
<path d="M498.31 262.65C499.917 262.65 501.22 261.347 501.22 259.74C501.22 258.133 499.917 256.83 498.31 256.83C496.703 256.83 495.4 258.133 495.4 259.74C495.4 261.347 496.703 262.65 498.31 262.65Z" fill="#133F6E"/>
<path d="M459.62 269.72C461.227 269.72 462.53 268.417 462.53 266.81C462.53 265.203 461.227 263.9 459.62 263.9C458.013 263.9 456.71 265.203 456.71 266.81C456.71 268.417 458.013 269.72 459.62 269.72Z" fill="#133F6E"/>
<path d="M485.4 269.73C487.013 269.73 488.32 268.423 488.32 266.81C488.32 265.197 487.013 263.89 485.4 263.89C483.787 263.89 482.48 265.197 482.48 266.81C482.48 268.423 483.787 269.73 485.4 269.73Z" fill="#133F6E"/>
<path d="M174.21 352.99C174.37 354.837 174.667 354.86 175.1 353.06C175.75 350.36 176.32 347.76 177.44 345.28C184.093 330.567 191.04 314.96 198.28 298.46C201.667 290.753 204.523 285.503 206.85 282.71C216.69 270.91 230.34 267.27 245.17 267.25C245.229 267.25 245.288 267.265 245.34 267.293C245.392 267.322 245.436 267.362 245.469 267.412C245.501 267.461 245.521 267.518 245.527 267.577C245.532 267.636 245.523 267.695 245.5 267.75L188.01 396C187.863 396.333 187.607 396.5 187.24 396.5H162.28C162.122 396.5 161.968 396.455 161.837 396.369C161.706 396.284 161.602 396.163 161.54 396.02L104.25 268.22C103.93 267.513 104.157 267.173 104.93 267.2C120.09 267.74 133.13 271.02 142.53 282.63C145.07 285.77 147.657 290.343 150.29 296.35C157.11 311.93 164.24 327.927 171.68 344.34C172.91 347.04 173.95 350.09 174.21 352.99Z" fill="#891731"/>
<path d="M472.5 279.34C475.587 279.34 478.09 276.837 478.09 273.75C478.09 270.663 475.587 268.16 472.5 268.16C469.413 268.16 466.91 270.663 466.91 273.75C466.91 276.837 469.413 279.34 472.5 279.34Z" fill="#133F6E"/>
<path d="M520 347.18C519.05 355.29 521.17 364.31 526.68 370.16C533.753 377.667 542.73 379.76 553.61 376.44C558.163 375.047 561.85 371.893 564.67 366.98C564.883 366.6 564.933 366.2 564.82 365.78C564.413 364.267 563.35 363.51 561.63 363.51C554.35 363.503 547.48 363.497 541.02 363.49C540.484 363.49 539.97 363.278 539.592 362.901C539.213 362.524 539 362.013 539 361.48V347.25C539 346.653 539.237 346.081 539.659 345.659C540.081 345.237 540.653 345 541.25 345H592.26C592.627 345 592.823 345.18 592.85 345.54C595.34 376 573.3 399.65 542.42 398.47C527.72 397.903 515.69 391.83 506.33 380.25C499.297 371.543 496.017 360.983 496.49 348.57C497.91 311.04 540.01 293.35 570.11 311.07C578.983 316.297 585.29 323.32 589.03 332.14C589.84 334.05 589.26 336.48 586.77 336.48C580.11 336.507 573.4 336.513 566.64 336.5C564.39 336.49 563.17 334.78 562.01 333.18C553.85 321.96 536.89 322.38 527.72 331.36C523.3 335.687 520.727 340.96 520 347.18Z" fill="#133F6E"/>
<path d="M266.49 305.75H248.25C246.864 305.75 245.74 306.874 245.74 308.26V394.24C245.74 395.626 246.864 396.75 248.25 396.75H266.49C267.876 396.75 269 395.626 269 394.24V308.26C269 306.874 267.876 305.75 266.49 305.75Z" fill="#891731"/>
<path d="M340.17 361.87C340.27 358.643 340.267 355.097 340.16 351.23C339.807 337.863 339.56 323.497 339.42 308.13C339.417 307.818 339.476 307.509 339.594 307.221C339.711 306.932 339.885 306.67 340.104 306.448C340.324 306.227 340.585 306.051 340.872 305.932C341.16 305.812 341.468 305.75 341.78 305.75H359.13C359.825 305.75 360.491 306.027 360.983 306.52C361.474 307.013 361.75 307.682 361.75 308.38V394.12C361.75 394.817 361.474 395.486 360.983 395.98C360.491 396.473 359.825 396.75 359.13 396.75L343.8 396.76C343.092 396.76 342.396 396.58 341.777 396.237C341.158 395.894 340.636 395.4 340.26 394.8L307.58 342.59C307.127 341.863 306.907 341.927 306.92 342.78L307.54 394.22C307.544 394.551 307.482 394.879 307.358 395.186C307.233 395.493 307.049 395.772 306.816 396.007C306.582 396.242 306.304 396.429 305.998 396.557C305.691 396.684 305.362 396.75 305.03 396.75H287.5C286.903 396.75 286.331 396.513 285.909 396.091C285.487 395.669 285.25 395.097 285.25 394.5V308.5C285.25 306.667 286.167 305.75 288 305.75H302.78C303.553 305.75 304.312 305.947 304.986 306.324C305.66 306.7 306.226 307.243 306.63 307.9L339.84 361.95C340.047 362.29 340.157 362.263 340.17 361.87Z" fill="#891731"/>
<path d="M437.08 345.88C436.834 346.136 436.652 346.445 436.546 346.783C436.44 347.121 436.414 347.48 436.471 347.829C436.527 348.179 436.664 348.512 436.87 348.8C437.076 349.088 437.347 349.324 437.66 349.49C443.22 352.423 446.643 356.787 447.93 362.58C451.23 377.43 443.74 391.05 428.62 395.17C425.56 396.003 421.867 396.473 417.54 396.58C405.64 396.867 394.48 396.887 384.06 396.64C383.443 396.627 382.855 396.372 382.423 395.931C381.992 395.49 381.75 394.897 381.75 394.28V308.74C381.75 306.76 382.74 305.767 384.72 305.76C393.447 305.727 402.303 305.733 411.29 305.78C414.77 305.8 418.247 306.003 421.72 306.39C433.47 307.7 443.02 315.1 444.14 327.12C444.667 332.833 443.517 337.817 440.69 342.07C439.72 343.53 438.28 344.64 437.08 345.88ZM404.18 328.86L404.26 338.04C404.263 338.341 404.324 338.638 404.442 338.915C404.559 339.192 404.73 339.443 404.945 339.653C405.159 339.864 405.413 340.031 405.692 340.143C405.971 340.256 406.269 340.313 406.57 340.31L414.81 340.23C415.731 340.222 416.641 340.056 417.489 339.741C418.337 339.426 419.107 338.968 419.753 338.393C420.399 337.818 420.91 337.138 421.256 336.391C421.602 335.644 421.777 334.845 421.77 334.04L421.75 332.54C421.736 330.915 420.985 329.362 419.661 328.224C418.337 327.085 416.549 326.455 414.69 326.47L406.45 326.55C406.149 326.553 405.852 326.614 405.575 326.732C405.298 326.849 405.047 327.02 404.837 327.235C404.626 327.449 404.459 327.703 404.347 327.982C404.234 328.261 404.177 328.559 404.18 328.86ZM404.19 362.31V373.51C404.19 373.844 404.256 374.174 404.383 374.482C404.511 374.79 404.698 375.07 404.934 375.306C405.17 375.542 405.45 375.729 405.758 375.857C406.066 375.984 406.396 376.05 406.73 376.05H417.02C419.468 376.05 421.816 375.252 423.547 373.833C425.278 372.413 426.25 370.488 426.25 368.48V367.34C426.25 365.332 425.278 363.407 423.547 361.987C421.816 360.568 419.468 359.77 417.02 359.77H406.73C406.396 359.77 406.066 359.836 405.758 359.963C405.45 360.091 405.17 360.278 404.934 360.514C404.698 360.75 404.511 361.03 404.383 361.338C404.256 361.646 404.19 361.976 404.19 362.31Z" fill="#133F6E"/>
<path d="M481.51 305.75H463.49C461.977 305.75 460.75 306.977 460.75 308.49V394.01C460.75 395.523 461.977 396.75 463.49 396.75H481.51C483.023 396.75 484.25 395.523 484.25 394.01V308.49C484.25 306.977 483.023 305.75 481.51 305.75Z" fill="#133F6E"/>
<path d="M679.37 370.4C672.98 390.63 654.84 396.54 635.4 396.7C625.673 396.78 615.927 396.787 606.16 396.72C605.453 396.715 604.776 396.43 604.278 395.928C603.78 395.426 603.5 394.747 603.5 394.04V308.28C603.5 307.626 603.759 306.998 604.219 306.533C604.68 306.069 605.306 305.805 605.96 305.8C616.933 305.673 627.293 305.693 637.04 305.86C652.04 306.12 664.96 310.31 673.75 322.75C678.43 329.363 681.113 336.907 681.8 345.38C682.553 354.54 681.743 362.88 679.37 370.4ZM626.75 329.14L626.99 373.38C626.991 373.732 627.062 374.08 627.198 374.405C627.334 374.729 627.532 375.024 627.782 375.272C628.032 375.52 628.328 375.716 628.654 375.85C628.979 375.983 629.328 376.051 629.68 376.05L638.53 376C643.92 375.97 649.077 373.63 652.867 369.493C656.656 365.357 658.769 359.762 658.74 353.94L658.71 348.26C658.696 345.376 658.156 342.523 657.121 339.864C656.086 337.204 654.576 334.791 652.678 332.761C650.78 330.731 648.531 329.124 646.059 328.033C643.586 326.942 640.94 326.387 638.27 326.4L629.42 326.45C629.068 326.451 628.72 326.522 628.395 326.658C628.07 326.794 627.776 326.992 627.528 327.242C627.28 327.492 627.084 327.788 626.95 328.114C626.817 328.439 626.749 328.788 626.75 329.14Z" fill="#133F6E"/>
<path d="M704.96 396.76L685.64 396.74C685.197 396.739 684.761 396.63 684.371 396.422C683.98 396.214 683.646 395.913 683.398 395.546C683.151 395.179 682.997 394.757 682.95 394.316C682.903 393.876 682.965 393.431 683.13 393.02L717.43 307.46C717.631 306.959 717.978 306.529 718.425 306.226C718.872 305.923 719.4 305.761 719.94 305.76L734.7 305.74C735.243 305.74 735.774 305.903 736.223 306.208C736.672 306.512 737.02 306.945 737.22 307.45L771.24 393.04C771.403 393.45 771.463 393.894 771.415 394.333C771.368 394.772 771.213 395.193 770.966 395.559C770.718 395.924 770.385 396.224 769.996 396.432C769.606 396.639 769.172 396.749 768.73 396.75H749.24C748.676 396.749 748.126 396.573 747.667 396.245C747.208 395.917 746.863 395.454 746.68 394.92L743.38 385.34C743.197 384.806 742.852 384.343 742.393 384.015C741.934 383.687 741.384 383.511 740.82 383.51L713.56 383.5C713.003 383.5 712.459 383.672 712.002 383.992C711.546 384.312 711.199 384.766 711.01 385.29L707.51 394.97C707.321 395.494 706.974 395.948 706.518 396.268C706.062 396.588 705.518 396.76 704.96 396.76ZM727.03 335.23C724.48 343.53 722.07 351.76 719.45 360.24C718.82 362.29 718.43 364.98 721.58 365C725.8 365.013 729.777 365 733.51 364.96C733.874 364.955 734.233 364.866 734.556 364.699C734.88 364.533 735.161 364.293 735.376 363.999C735.592 363.705 735.736 363.365 735.797 363.006C735.858 362.647 735.836 362.279 735.73 361.93L727.7 335.23C727.48 334.483 727.257 334.483 727.03 335.23Z" fill="#133F6E"/>
<path d="M781.59 326.57C781.464 326.53 781.332 326.51 781.2 326.51L767.9 326.49C767.263 326.487 766.652 326.232 766.202 325.781C765.753 325.329 765.5 324.717 765.5 324.08V308.25C765.5 307.584 765.763 306.946 766.232 306.475C766.701 306.004 767.337 305.74 768 305.74H821.75C822.479 305.74 823.179 306.031 823.695 306.548C824.21 307.066 824.5 307.768 824.5 308.5L824.51 323.75C824.51 324.479 824.219 325.179 823.702 325.695C823.184 326.21 822.482 326.5 821.75 326.5H808.75C808.222 326.5 807.716 326.711 807.343 327.086C806.97 327.461 806.76 327.97 806.76 328.5L806.75 394C806.75 394.729 806.46 395.429 805.945 395.945C805.429 396.46 804.729 396.75 804 396.75H786.28C784.26 396.75 783.25 395.74 783.25 393.72C783.25 370.967 783.247 349.313 783.24 328.76C783.24 327.71 782.62 326.9 781.59 326.57Z" fill="#133F6E"/>
</svg>
